<?xml version="1.0" standalone="no"?>
<!DOCTYPE svg PUBLIC "-//W3C//DTD SVG 1.1//EN" "http://www.w3.org/Graphics/SVG/1.1/DTD/svg11.dtd" >
<svg xmlns="http://www.w3.org/2000/svg">
<metadata>
This is a custom SVG webfont generated by Font Squirrel.
Copyright   : Created by Thatcher Ulrich httptulrichcom with FontForge 10 httpfontforgesfnetThis font including hint instructions has been donated to the Public Domain  Do whatever you want with it
Designer    : Thatcher Ulrich
Foundry URL : httptulrichcom
</metadata>
<defs>
<font id="webfont1SozA2n4" horiz-adv-x="1175" >
<font-face units-per-em="2048" ascent="1597" descent="-451" />
<missing-glyph horiz-adv-x="614" />
<glyph unicode=" "  horiz-adv-x="614" />
<glyph unicode="&#x09;" horiz-adv-x="614" />
<glyph unicode="&#xa0;" horiz-adv-x="614" />
<glyph unicode="!" horiz-adv-x="456" d="M92 96q0 10 4 35q15 68 74 117q55 47 127 47q57 0 94 -37t37 -92q0 -23 -2 -35q-15 -68 -74 -117q-55 -47 -127 -47q-57 0 -94 37q-39 39 -39 92zM225 434l1 2q1 2 1 4l160 949q10 39 62 65q57 29 98 29q37 0 80 -24.5t43 -57.5q0 -2 -1 -6l-1 -4l-242 -951 q-6 -23 -45 -41q-40 -18 -68 -18q-25 0 -57 16q-31 15 -31 37z" />
<glyph unicode="&#x22;" horiz-adv-x="872" d="M381 1081q0 2 1 6l1 5l57 374q6 33 52 56q41 20 77 20h4q4 0 25 -4q25 -6 35 -8q14 -6 29 -19q12 -12 12 -28l-2 -17l-101 -374q-6 -23 -42.5 -35.5t-61.5 -12.5q-20 0 -55 11q-31 10 -31 26zM756 1083v4v5l59 374q6 33 51 56q41 20 78 20h4q6 0 26.5 -4t33.5 -8 q16 -6 28.5 -18.5t12.5 -28.5l-2 -17l-101 -374q-6 -25 -43 -35q-39 -12 -63 -13q-18 0 -54 11q-30 10 -30 28z" />
<glyph unicode="#" horiz-adv-x="1564" d="M195 356l51 240h317l51 240h-317l49 237h320l69 330h254l-69 -330h184l70 330h253l-69 -330h311l-49 -237h-311l-52 -240h312l-51 -240h-312l-65 -309h-254l65 309h-184l-68 -309h-254l66 309h-317zM817 596h187l51 240h-187z" />
<glyph unicode="$" horiz-adv-x="925" d="M92 344l264 82l9.5 -29.5t5.5 -21.5t16 -47q14 -43 23 -52q12 -15 30 -30q20 -18 41 -21l88 414q-313 74 -313 317q0 53 10 95q23 100 94 178q78 84 170 125q104 45 201 51l29 131h170l-31 -131q123 -8 201 -72q77 -61 117 -178l-281 -82q-20 43 -37 60q-18 18 -51 26 l-72 -336q12 -4 37 -13t35 -13q20 -8 65 -31q35 -16 64 -39q25 -18 51 -45q28 -28 43 -55q18 -33 27 -66q12 -49 12 -82q0 -45 -12 -94q-33 -164 -170 -278.5t-332 -133.5l-27 -129h-168l27 129q-80 6 -141.5 43t-100.5 90.5t-61 114.5q-25 68 -33 123zM535 995 q0 -43 20 -65q25 -29 68 -45l59 282q-57 -6 -96 -47q-35 -39 -45 -76q-6 -27 -6 -49zM647 217q78 16 121 62q43 47 55 108q4 14 4 41q0 104 -102 150z" />
<glyph unicode="%" horiz-adv-x="1433" d="M299 119l932 1218h201l-922 -1218h-211zM315 1010q0 20 9 65q29 131 135 223q104 90 233 91q109 0 176 -70q70 -74 70 -176q0 -23 -8 -68q-27 -127 -135.5 -217t-235.5 -90q-106 0 -174 68q-70 70 -70 174zM535 1049q0 -35 18 -54q20 -20 51 -20q35 0 68 26q29 25 39 74 q4 20 4 29q0 35 -18.5 57.5t-49.5 22.5q-35 0 -67 -33q-35 -35 -43 -76q-2 -10 -2 -26zM797 303q0 23 8 68q27 129 135 221t234 92q109 0 176 -69.5t67 -176.5q0 -23 -8 -67q-29 -129 -133 -217q-109 -90 -236 -91q-109 0 -176 68t-67 172zM1016 342q0 -35 18.5 -53.5 t50.5 -18.5q39 0 68 27q33 29 41 74q2 10 2 26q0 37 -18.5 59.5t-49 22.5t-67.5 -33q-31 -29 -41 -75q-4 -21 -4 -29z" />
<glyph unicode="&#x26;" horiz-adv-x="1282" d="M131 303q0 37 10 88q71 329 332 436q-18 8 -43 29q-31 27 -45 45q-25 31 -35 66q-12 41 -12 84q0 34 6 67q37 178 188 291q152 111 334 111q138 0 221 -68q86 -70 107 -178l-236 -107q-12 41 -49 76q-39 35 -96 35q-70 0 -125 -41q-61 -45 -76 -119q-4 -14 -4 -43 q0 -61 41 -96q39 -33 109 -33h170l-51 -239h-166q-104 0 -191 -80q-84 -78 -108 -199q-6 -28 -6 -55q0 -82 49 -133.5t137 -51.5q113 0 176 49.5t80 120.5h-174l47 217h586l-45 -215h-158q-10 -47 -41 -106q-25 -47 -78 -109q-55 -61 -113 -100q-63 -41 -149 -70 q-90 -29 -182 -28q-113 0 -209 45q-94 45 -146 125q-55 88 -55 186z" />
<glyph unicode="'" horiz-adv-x="462" d="M381 1081q0 2 1 6l1 5l57 374q6 33 52 56q41 20 77 20h4q4 0 25 -4q25 -6 35 -8q14 -6 29 -19q12 -12 12 -28l-2 -17l-101 -374q-6 -23 -42.5 -35.5t-61.5 -12.5q-20 0 -55 11q-31 10 -31 26z" />
<glyph unicode="(" horiz-adv-x="651" d="M147 395q0 150 41 344q104 494 433 824h264q-172 -190 -285 -410q-109 -211 -156 -424q-29 -137 -28 -268q0 -295 119 -545h-265q-123 215 -123 479z" />
<glyph unicode=")" horiz-adv-x="641" d="M59 -96q174 197 283 405q115 221 158 418q25 125 24 266q0 311 -114 555h260q123 -215 123 -499q0 -147 -35 -322q-47 -227 -154 -438q-100 -201 -285 -385h-260z" />
<glyph unicode="*" horiz-adv-x="1171" d="M238 692q0 16 2 25v4q6 27 30 70q22 37 49 43q4 2 21 2l246 -15l-92 207q-3 12 0 25q6 31 32 57q29 29 54 41l4 2q45 23 88 23q29 0 39 -17q6 -6 8 -14l63 -219l158 217q23 29 68 28q41 0 69 -18l2 -2h2q14 -10 35 -37q16 -23 17 -47v-8l-5 -12q-3 -9 -12 -19l-178 -207 l246 15q29 0 41 -27q12 -28 12 -61v-25v-4q-6 -27 -31 -70q-20 -37 -51 -43q-4 -2 -20 -2l-242 12l90 -204q2 -14 0 -25q-6 -29 -33 -55q-29 -29 -53 -41l-4 -2q-45 -23 -86 -23q-33 0 -41 15q-6 6 -8 16l-66 219l-155 -219q-20 -27 -68 -27q-41 0 -72 19l-2 2 q-18 12 -35 35q-18 25 -18 49q0 2 1 5l1 3l4 10q6 12 12 21l177 204l-246 -14q-29 0 -41 27t-12 61z" />
<glyph unicode="+" horiz-adv-x="970" d="M178 520l51 240h267l63 303h242l-66 -303h289l-51 -240h-289l-61 -287h-238l59 287h-266z" />
<glyph unicode="," horiz-adv-x="442" d="M80 92q0 20 6 45q12 63 70 111q61 51 123 51q68 0 102 -39q33 -35 33 -90q0 -23 -2 -33q-12 -55 -47 -117q-34 -58 -74 -104q-27 -31 -74 -74q-39 -37 -57 -47l-66 43q16 20 41 60t31 61v12q-39 10 -62 39q-24 31 -24 82z" />
<glyph unicode="-" horiz-adv-x="958" d="M207 514l51 240h772l-51 -240h-772z" />
<glyph unicode="." horiz-adv-x="450" d="M88 96q0 10 4 35q16 70 71.5 117t127.5 47q59 0 96 -37t37 -92q0 -10 -4 -35q-16 -70 -71.5 -117t-127.5 -47q-59 0 -96 37t-37 92z" />
<glyph unicode="/" horiz-adv-x="845" d="M-43 0l983 1544h268l-962 -1544h-289z" />
<glyph unicode="0" d="M207 461q0 131 35 295q74 346 250 540.5t415 194.5q184 0 281 -119q94 -115 94 -334q0 -133 -33 -282q-49 -233 -143 -406q-94 -174 -234 -278q-133 -100 -292 -101h-2q-180 0 -277 131q-94 128 -94 359zM465 430q0 -111 39 -162q43 -55 125 -55q135 0 215 131 q74 121 137 412q43 199 43 303q0 98 -39 143t-131 45q-139 0 -213 -110q-72 -109 -131 -381q-45 -205 -45 -326z" />
<glyph unicode="1" d="M485 1206l39 31l289 219h266l-309 -1456h-268l252 1184l4 22h-273z" />
<glyph unicode="2" d="M92 0q37 170 105 291q72 127 215 244q53 45 141 100l145 94q43 27 125 88q61 47 103 103q39 55 55 120q6 33 6 64q0 74 -41 110.5t-112 36.5q-83 0 -142 -43q-57 -43 -104 -133l-223 72q61 145 212.5 245.5t307.5 100.5q49 0 104 -10t101 -33q53 -27 86 -59 q41 -41 59 -93q23 -61 22 -131q0 -55 -16 -127q-25 -117 -78 -202q-49 -80 -164 -174q-61 -49 -194 -136q-129 -83 -221 -153q-96 -74 -131 -135h659l-51 -240h-969z" />
<glyph unicode="3" d="M162 324l272 69q18 -96 76 -137q59 -43 133 -43q98 0 180 63q76 59 99 152q4 29 4 41q0 77 -56 129q-57 53 -135 53h-164l45 213h144q72 0 141 60q66 57 82 131q6 27 6 55q0 70 -43 106.5t-110 36.5q-59 0 -111 -32q-53 -35 -80 -78l-235 65q166 283 475 283 q78 0 143 -18q68 -18 117 -52q51 -33 82 -92q29 -55 28 -135q0 -55 -10 -98q-37 -170 -205 -277q45 -37 60 -51q31 -31 51 -61q25 -37 37 -82q14 -53 14 -99q0 -55 -10 -98q-39 -184 -213 -322q-172 -135 -387 -135q-113 0 -201 35t-149.5 115t-79.5 203z" />
<glyph unicode="4" d="M164 348l45 205l756 903h288l-186 -870h139l-51 -238h-137l-74 -348h-268l74 348h-586zM473 588h336l109 518z" />
<glyph unicode="5" d="M172 367l274 45q0 -20 10.5 -55t30.5 -64q25 -35 64 -55q41 -23 92 -23q109 0 193 71.5t104 174.5q6 31 6 61q0 88 -51 142q-51 55 -143 55q-109 0 -181 -60l-237 91l266 706h684l-49 -239h-469l-119 -291q45 23 154 22q186 0 301 -102.5t115 -272.5q0 -53 -13 -112 q-31 -145 -123 -256q-98 -117 -219 -172q-131 -59 -270 -60q-92 0 -164 27q-82 31 -121 68q-47 43 -78 96q-33 55 -45 104.5t-12 98.5z" />
<glyph unicode="6" d="M190 340q0 39 11 90q18 82 55 164q37 83 68 129q20 33 84 117l61 84l387 532h287l-416 -559q4 4 55 4q180 0 285 -98q102 -96 102 -260q0 -55 -12 -115q-18 -86 -70 -166q-49 -78 -129 -145q-78 -66 -176 -105q-104 -41 -204 -41q-88 0 -162 31t-123 80q-47 47 -76 117 q-27 65 -27 141zM463 379q0 -76 47 -123t121 -47q92 0 165.5 67.5t92.5 151.5q6 28 6 55q0 80 -45 127q-47 49 -125 49q-94 0 -166 -67.5t-90 -159.5q-6 -26 -6 -53z" />
<glyph unicode="7" d="M98 0l860 1202h-604l56 254h1056l-1044 -1456h-324z" />
<glyph unicode="8" d="M147 326q0 51 13 106q16 66 53 131q33 59 84 113q47 49 96 84q49 33 90 43q-37 25 -41 31q-27 27 -41 45q-27 35 -36 67q-14 47 -15 84q0 20 8 66q37 178 187 284q152 109 358 109q178 0 287 -86q106 -86 106 -227q0 -45 -8 -80q-12 -51 -37 -97q-18 -35 -47 -71 q-16 -20 -63 -58q-41 -31 -54 -39q-16 -8 -51 -28q72 -20 123 -101q53 -84 53 -190q0 -45 -8 -80q-31 -147 -125 -253.5t-223 -155.5q-135 -51 -276 -52q-205 0 -320 97q-113 94 -113 258zM422 377q0 -84 55 -133q57 -51 154 -51q113 0 198.5 67.5t106.5 171.5q4 16 4 49 q0 86 -59 142q-55 53 -148 53q-119 0 -200.5 -67.5t-104.5 -176.5q-6 -27 -6 -55zM621 1047q0 -61 43 -92t122 -31q92 0 152 41q63 45 82 131q4 14 4 43q0 61 -41 96t-125 35q-96 0 -156 -49q-61 -51 -75 -125q-6 -24 -6 -49z" />
<glyph unicode="9" d="M313 913q0 53 13 113q20 88 69 168q49 78 129 145q78 66 176 105q104 41 205 41q88 0 162 -31t123 -80q47 -47 76 -117q27 -66 26 -143q0 -39 -10 -90q-20 -90 -55 -162q-47 -100 -68 -129q-20 -33 -84 -117l-61 -84l-387 -532h-287l418 559q-4 -4 -56 -4 q-180 0 -284.5 98t-104.5 260zM588 973q0 -76 47 -127q45 -49 125 -49q92 0 163.5 67.5t90.5 159.5q6 29 6 53q0 76 -47 123t-119 47q-94 0 -168 -67.5t-92 -153.5q-6 -26 -6 -53z" />
<glyph unicode=":" horiz-adv-x="438" d="M244 823q0 10 4 35q16 70 71.5 117t127.5 47q59 0 96 -37t37 -92q0 -10 -4 -35q-16 -70 -71.5 -117t-127.5 -47q-59 0 -96 37t-37 92zM88 96q0 10 4 35q16 70 71.5 117t127.5 47q59 0 96 -37t37 -92q0 -10 -4 -35q-16 -70 -71.5 -117t-127.5 -47q-59 0 -96 37t-37 92z " />
<glyph unicode=";" horiz-adv-x="438" d="M90 92q0 20 6 45q12 63 70 111q61 51 123 51q68 0 102 -39q33 -35 33 -90q0 -23 -2 -33q-12 -55 -47 -117q-34 -58 -74 -104q-27 -31 -74 -74q-39 -37 -57 -47l-66 43q16 20 41 60t31 61v12q-39 10 -62 39q-24 31 -24 82zM244 825q0 10 4 35q16 70 71.5 117t127.5 47 q59 0 96 -37t37 -92q0 -10 -4 -35q-16 -70 -71.5 -117t-127.5 -47q-59 0 -96 37t-37 92z" />
<glyph unicode="&#x3c;" horiz-adv-x="862" d="M180 637l545 600h334l-547 -604l287 -608h-330z" />
<glyph unicode="=" horiz-adv-x="905" d="M121 309l51 240h801l-51 -240h-801zM199 676l51 239h801l-52 -239h-800z" />
<glyph unicode="&#x3e;" horiz-adv-x="862" d="M59 20l551 613l-293 602h340l285 -598l-545 -617h-338z" />
<glyph unicode="?" horiz-adv-x="1032" d="M283 1110q55 170 200.5 278.5t333.5 108.5q88 0 158 -20q72 -20 129 -60q53 -35 88 -98q33 -59 33 -137q0 -45 -8 -84q-12 -61 -50 -137q-29 -59 -71 -107q-39 -43 -82 -76q-47 -37 -88 -63q-29 -18 -78 -56q-41 -31 -62 -59q-27 -37 -34 -70l-27 -131h-268l41 195 q16 68 59 121q39 45 102 92l113 78q53 37 102 92q46 52 62 117q2 12 2 36q0 45 -25 72q-23 27 -61 39q-37 12 -82 12q-78 0 -141 -53q-61 -53 -86 -131zM367 96q0 10 4 35q15 68 73 117q55 47 125 47q59 0 96 -37t37 -92q0 -10 -4 -35q-16 -70 -71.5 -117t-126.5 -47 q-57 0 -94 37q-39 39 -39 92z" />
<glyph unicode="@" horiz-adv-x="1736" d="M217 573q0 86 16 158q46 212 191 387q145 176 346 276.5t424 100.5q137 0 262 -45q121 -43 205 -121q86 -80 131 -184.5t45 -235.5q0 -78 -14 -149q-20 -104 -88 -196.5t-144 -139.5q-84 -51 -157 -51q-51 0 -105 33q-49 31 -69 94q-117 -154 -312 -154q-147 0 -237 88 q-92 89 -93 221q0 41 9 76q31 145 174 256q139 106 307 107q145 0 229 -82q86 -82 86 -201q0 -33 -6 -66q-6 -22 -6 -43q0 -47 19 -77q20 -33 47 -33q39 0 82 49q41 47 57 119q10 49 10 114q0 98 -33 179q-35 84 -94 141q-66 61 -149 94q-92 35 -195 35q-117 0 -240 -47 q-115 -45 -217 -127q-96 -78 -167.5 -190.5t-96.5 -229.5q-12 -66 -12 -125q0 -104 35 -186q39 -90 98 -149.5t154 -98.5q90 -37 194 -37q98 0 203 37q106 37 174 90l80 -147q-120 -74 -234 -111q-106 -35 -258 -35q-143 0 -264 45t-207 125q-82 76 -133 193 q-47 106 -47 243zM842 692q0 -61 43 -102q45 -41 106 -41q80 0 137 57q55 55 74 139q4 25 4 33q0 59 -39 92q-41 35 -100 35q-74 0 -139 -47q-63 -45 -82 -127q-4 -29 -4 -39z" />
<glyph unicode="A" horiz-adv-x="1419" d="M20 0l873 1456h256l199 -1456h-308l-45 379h-446l-217 -379h-312zM674 625h299l-51 424z" />
<glyph unicode="B" horiz-adv-x="1224" d="M119 0l309 1456h436q106 0 187 -18q76 -18 129 -47q49 -28 80 -68q27 -35 40 -80q12 -40 13 -86q0 -37 -10 -88q-20 -106 -94 -176t-171 -96q68 -18 105 -47q49 -39 69 -74q23 -41 37 -88q12 -43 13 -88q0 -33 -7 -62q-14 -57 -32 -104q-23 -55 -68 -115 q-49 -66 -113 -110q-68 -49 -168 -78q-104 -31 -231 -31h-524zM438 240h228q86 0 141 16q61 18 98 49t60 66q18 29 28 75q6 25 6 48q0 145 -249 145h-228zM573 877h168q133 0 207 51q70 49 86 121q4 25 4 34q0 55 -53 97q-51 39 -172 39h-168z" />
<glyph unicode="C" horiz-adv-x="1308" d="M219 494q0 121 31 260q23 111 69 223q45 113 111 203q66 92 156 166q86 72 205 110q123 41 253 41q84 0 168 -27q74 -23 129 -69q47 -39 84 -98q31 -51 48 -115l-275 -90q-25 66 -84 112.5t-121 46.5q-76 0 -145 -28q-72 -29 -119 -74q-47 -43 -88 -111q-41 -66 -66 -137 t-43 -153q-23 -104 -22 -209q0 -76 14 -133q16 -61 45 -107q33 -49 80 -72q51 -25 119 -24q135 0 293 201l237 -101q-229 -342 -579 -342q-113 0 -195 27q-86 28 -141 74q-55 45 -92 114q-43 78 -55 144q-17 82 -17 168z" />
<glyph unicode="D" horiz-adv-x="1271" d="M115 0l309 1456h467q117 0 207 -39q92 -39 151.5 -108.5t93.5 -165.5q33 -92 33 -207q0 -94 -20 -184q-33 -156 -109 -297q-72 -135 -176 -240q-100 -100 -227 -157.5t-262 -57.5h-467zM434 240h199q145 0 268 141t172 371q16 82 17 145q0 147 -68 233.5t-180 86.5h-201z " />
<glyph unicode="E" horiz-adv-x="1210" d="M115 0l309 1456h983l-51 -239h-715l-74 -351h652l-52 -239h-651l-82 -387h715l-51 -240h-983z" />
<glyph unicode="F" horiz-adv-x="1189" d="M115 0l309 1456h983l-51 -239h-715l-74 -351h652l-52 -239h-651l-133 -627h-268z" />
<glyph unicode="G" horiz-adv-x="1419" d="M225 520q0 109 27 242q20 98 65 207q43 100 109 196q61 88 156 170q86 74 202 117q123 45 248 45q156 0 266.5 -80t141.5 -217l-277 -86q-3 52 -67 98q-63 45 -115 45q-84 0 -160 -45q-80 -47 -133 -118q-55 -74 -94 -158q-43 -90 -59 -174q-20 -94 -21 -191 q0 -78 14 -137q16 -72 41 -115q31 -55 76 -79q51 -29 113 -29q74 0 131 25q61 27 98 59q35 33 70 88q33 53 47 92q18 51 26 92h-303l52 240h581l-33 -145q-18 -90 -59 -195q-37 -92 -98 -186q-57 -88 -142 -158q-82 -70 -188 -109q-111 -41 -233 -41q-109 0 -187 29 q-82 31 -137 80q-49 43 -90 123q-35 68 -51 149q-17 86 -17 166z" />
<glyph unicode="H" horiz-adv-x="1251" d="M115 0l309 1456h268l-125 -592h486l125 592h268l-309 -1456h-269l133 625h-485l-133 -625h-268z" />
<glyph unicode="I" horiz-adv-x="552" d="M143 0l310 1456h268l-309 -1456h-269z" />
<glyph unicode="J" horiz-adv-x="1249" d="M205 383q0 86 22 203h242q-16 -72 -16 -127q0 -51 12 -94t35 -74q27 -37 65 -53q43 -18 99 -19q70 0 124 31q59 33 95 86q39 57 61 115q27 68 41 135l184 870h269l-185 -870q-61 -283 -229 -451q-170 -170 -416 -170q-102 0 -182 31q-76 29 -127 86q-47 53 -72 131 q-22 70 -22 170z" />
<glyph unicode="K" horiz-adv-x="1331" d="M115 0l309 1456h268l-133 -622l676 622h336l-694 -647l413 -809h-336l-321 629l-146 -133l-104 -496h-268z" />
<glyph unicode="L" horiz-adv-x="1218" d="M115 0l309 1456h268l-258 -1216h766l-51 -240h-1034z" />
<glyph unicode="M" horiz-adv-x="1546" d="M66 0l309 1456h360l129 -1032l578 1032h358l-309 -1456h-262l213 999l-531 -999h-270l-102 987l-211 -987h-262z" />
<glyph unicode="N" horiz-adv-x="1341" d="M119 0l309 1456h260l375 -940l199 940h268l-309 -1456h-265l-362 973l-207 -973h-268z" />
<glyph unicode="O" horiz-adv-x="1406" d="M236 526q0 114 24 228q14 68 41 143q18 53 64 143q33 66 84 138q39 55 110 122q51 47 133 99q63 39 158 65q86 25 180 25q111 0 189 -29q86 -33 137 -80q53 -49 90 -120q33 -61 49 -144q16 -78 16 -158q0 -96 -22 -204q-20 -104 -66 -213q-47 -117 -110 -209 q-72 -106 -156 -184t-200.5 -127.5t-247.5 -49.5q-102 0 -184.5 31t-135.5 84q-59 59 -88 123q-35 76 -49 151q-16 86 -16 166zM518 541q0 -41 8 -103q6 -47 25 -90q18 -41 45 -72q23 -25 70 -45q43 -18 94 -18q76 0 139 33q66 35 115 86q39 41 86 125q41 74 65 145 q27 80 41 152q23 102 23 186q0 68 -12.5 119t-41 96t-77.5 69.5t-117 24.5q-90 0 -170 -45q-74 -41 -129 -119q-47 -66 -84 -157q-35 -84 -55 -174q-25 -115 -25 -213z" />
<glyph unicode="P" horiz-adv-x="1146" d="M121 0l309 1456h268h129q109 0 209 -26q90 -25 147.5 -72t84.5 -107q29 -63 28 -137q0 -45 -12 -94q-41 -188 -213 -313q-176 -127 -430 -127h-129l-123 -580h-268zM563 823h131q274 0 318 197q6 25 6 49q0 147 -240 148h-131z" />
<glyph unicode="Q" horiz-adv-x="1435" d="M233 530q0 109 25 224q23 104 59 192q35 86 109 197q68 101 154 178q84 76 204.5 125t251.5 49q98 0 180 -28.5t135.5 -76t90.5 -114.5q35 -66 51 -143q16 -82 16 -162q0 -106 -24 -217q-33 -158 -99 -289q-66 -129 -131 -205l115 -98l-190 -191l-111 109 q-70 -53 -164 -84q-95 -31 -203 -31q-98 0 -178 31t-131 82q-55 55 -90 125q-39 78 -53 155q-17 88 -17 172zM520 539q0 -41 8 -103q6 -47 25 -90q20 -45 43 -72q28 -31 68 -49q41 -18 94 -18q94 0 139 37l-133 118l188 197l129 -131q35 45 72 145q39 104 53 181 q23 106 23 186q0 76 -15 127q-15 55 -43 98q-25 39 -75 66q-46 25 -111 24q-70 0 -137 -28q-57 -25 -111 -78q-43 -43 -86 -113q-43 -68 -65 -135q-27 -78 -41 -147q-25 -114 -25 -215z" />
<glyph unicode="R" horiz-adv-x="1208" d="M121 0l309 1456h268h127q111 0 211 -26q90 -25 148 -72q55 -47 84 -109q29 -63 28 -137q0 -37 -10 -92q-25 -121 -121 -229q-94 -106 -239 -164l237 -627h-305l-190 582q-16 -2 -66 -2h-51h-39l-123 -580h-268zM563 823h129q276 0 320 197q6 25 6 47q0 150 -242 150h-129 z" />
<glyph unicode="S" horiz-adv-x="1200" d="M168 373q0 4 1 14t1 16l276 43q4 -51 15 -86q12 -40 37 -73q27 -35 67 -54q47 -20 101 -20q111 0 182.5 53t89.5 137q4 14 4 46q0 33 -16 65q-16 31 -41 53q-16 14 -66 41q-37 20 -78 37l-90 37q-55 23 -90 43q-35 18 -76 47q-37 25 -63 55q-37 41 -49 76q-16 45 -17 98 q0 37 11 89q27 129 119 223t206 137q117 43 246 43q164 0 276 -88q111 -86 127 -219l-284 -51q-12 55 -51 85.5t-119 30.5q-94 0 -162 -37q-66 -35 -84 -124q-2 -8 -2 -23q0 -37 23 -66q25 -31 67 -55q35 -20 84 -41q90 -39 96 -41q52 -22 80 -37q51 -27 94 -55 q27 -18 72 -67q33 -35 51 -87q18 -49 19 -108q0 -51 -13 -107q-27 -127 -118 -231q-84 -96 -213 -149q-123 -51 -267 -52q-201 0 -323.5 111t-122.5 291z" />
<glyph unicode="T" horiz-adv-x="1351" d="M338 1217l49 239h1202l-51 -239h-457l-258 -1217h-268l258 1217h-475z" />
<glyph unicode="U" horiz-adv-x="1345" d="M229 440q0 111 29 254l162 762h274l-162 -762q-27 -125 -26 -225q0 -256 196 -256q270 0 375 481l162 762h274l-161 -762q-74 -342 -258.5 -532.5t-442.5 -190.5q-207 0 -313 121q-109 125 -109 348z" />
<glyph unicode="V" horiz-adv-x="1300" d="M379 1456h289l73 -1044l521 1044h278l-727 -1456h-315z" />
<glyph unicode="W" horiz-adv-x="1667" d="M303 0l80 1456h281l-56 -917l400 891h280l35 -898l340 924h235l-546 -1456h-312l-20 936l-422 -936h-295z" />
<glyph unicode="X" horiz-adv-x="1296" d="M53 0l582 727l-266 729h309l162 -502l379 502h309l-578 -729l275 -727h-336l-154 461l-346 -461h-336z" />
<glyph unicode="Y" horiz-adv-x="1312" d="M375 1456h284l197 -536l424 536h279l-613 -751l-149 -705h-269l150 705z" />
<glyph unicode="Z" horiz-adv-x="1415" d="M72 0l1058 1217h-733l52 239h1167l-1057 -1216h793l-52 -240h-1228z" />
<glyph unicode="[" horiz-adv-x="741" d="M100 -98l346 1630h502l-51 -240h-248l-243 -1153h247l-51 -237h-502z" />
<glyph unicode="\" horiz-adv-x="854" d="M289 1542h293l313 -1542h-309z" />
<glyph unicode="]" horiz-adv-x="741" d="M98 -98l52 239h245l244 1151h-246l51 240h500l-346 -1630h-500z" />
<glyph unicode="^" horiz-adv-x="1079" d="M367 1151l356 342h235l211 -344h-270l-98 160l-158 -158h-276z" />
<glyph unicode="_" horiz-adv-x="1239" d="M18 -281l52 240h1087l-49 -240h-1090z" />
<glyph unicode="`" horiz-adv-x="534" d="M383 1438v14q6 25 29 57q18 27 47 43q55 33 96 33q31 0 39 -18l143 -314l1 -2q1 -2 1 -4t-1 -4t-1 -4q-2 -14 -26 -45q-20 -27 -39 -39q-49 -33 -84 -33q-16 0 -21 11l-182 284q-2 7 -2 21z" />
<glyph unicode="a" horiz-adv-x="1079" d="M156 268q0 39 10 90q33 160 164 273q129 111 278 110q94 0 162 -51q66 -49 72 -115l16 82q8 35 8 72q0 41 -12 72q-12 33 -33 49q-16 14 -49 29q-25 10 -53 14q-33 4 -55 4q-41 0 -93 -10q-59 -12 -71 -17q-27 -10 -66 -26l-67 164q55 39 155 65q109 29 185 29 q68 0 129 -12q72 -14 114 -37q53 -29 90 -68q43 -45 62 -100q20 -59 20 -135q0 -70 -14 -142l-66 -303l-63 -305h-258l29 135q-33 -63 -119 -115q-82 -49 -182 -49q-131 0 -211 82q-82 86 -82 215zM406 328q0 -59 45 -98.5t124 -39.5q88 0 150 50q63 49 78 116q4 20 4 31 q0 58 -43 98q-41 39 -119 39q-86 0 -156 -51q-66 -49 -81 -117q-2 -10 -2 -28z" />
<glyph unicode="b" horiz-adv-x="1120" d="M119 0l309 1454h258l-115 -536q66 80 164.5 131t182.5 51q76 0 129 -27q57 -29 88 -74q35 -49 49 -112q16 -70 16 -144q0 -96 -24 -211q-25 -121 -68 -217q-41 -94 -106.5 -176t-145.5 -123q-86 -45 -178 -45q-88 0 -160 52q-76 53 -108 135l-33 -158h-258zM469 414 q0 -57 14 -99q14 -43 39 -63q27 -23 53 -35q23 -10 60 -10q78 0 164 86q84 84 119 244q14 63 14 125q0 106 -45 153q-47 51 -113 51q-35 0 -78 -16q-37 -14 -82 -53q-47 -39 -77 -103q-35 -70 -54 -157q-14 -64 -14 -123z" />
<glyph unicode="c" horiz-adv-x="1046" d="M180 375q0 76 19 157q55 254 229 410q176 158 391 158q119 0 213 -64q98 -68 131 -168l-235 -112q-41 115 -158 114q-98 0 -188 -96t-121 -242q-10 -41 -10 -96q0 -109 53 -170q55 -63 145 -63q33 0 68 10q25 6 47 27q18 14 35 34q23 25 30 41l191 -110 q-80 -98 -190.5 -166t-229.5 -68q-197 0 -309 109q-111 108 -111 295z" />
<glyph unicode="d" horiz-adv-x="1120" d="M164 326q0 104 22 206q33 150 101 283q63 125 167.5 205t231.5 80q84 0 162 -51q74 -49 106 -131l115 536h258l-309 -1454h-258l33 158q-72 -86 -164 -135q-94 -51 -183 -52q-68 0 -127 27q-57 25 -90 74q-35 49 -49 112q-16 70 -16 142zM436 426q0 -104 45 -161.5 t109 -57.5q37 0 80 16q41 16 82 51t75 105q39 80 56 158q14 63 14 122q0 53 -16 99q-14 43 -39 63q-23 20 -51.5 32.5t-61.5 12.5q-84 0 -164 -79.5t-116 -249.5q-13 -59 -13 -111z" />
<glyph unicode="e" horiz-adv-x="1091" d="M186 395q0 66 17 142q35 164 125 288q94 131 217 201q127 72 258 72q163 0 258 -111q96 -113 96 -293q0 -84 -16 -157l-15 -68h-663q-10 -51 -10 -86q0 -43 12 -78q14 -39 29 -53q23 -23 38 -31q29 -14 46 -16q29 -4 43 -4q98 0 167 65l207 -96q-80 -96 -198 -147 q-117 -51 -226 -52q-170 0 -276 117q-109 119 -109 307zM502 651h411q4 29 5 37q0 80 -44 129q-45 51 -120 51q-92 0 -158 -63q-69 -68 -94 -154z" />
<glyph unicode="f" horiz-adv-x="780" d="M213 0l178 844h-137l47 229h139l19 80q14 57 49 109q35 49 96 108q55 52 129 86q72 33 146 33q61 0 118 -23q55 -23 90 -65l-186 -180q-12 20 -37 28q-27 10 -43 11q-82 0 -100 -86l-23 -101h166l-49 -229h-166l-178 -844h-258z" />
<glyph unicode="g" horiz-adv-x="1136" d="M82 -133q0 23 2 35l244 10v-14q0 -61 43 -98.5t131 -37.5t160 45q68 43 83 123l48 228q-72 -86 -164 -135q-94 -51 -183 -52q-68 0 -127 27q-57 25 -90 74q-35 49 -49 112q-16 70 -16 142q0 104 22 206q33 150 101 283q63 125 167.5 205t231.5 80q84 0 162 -51 q74 -49 106 -131l33 155h258l-237 -1122q-20 -86 -64 -156q-45 -74 -113 -131q-61 -53 -167 -90q-100 -35 -209 -35q-88 0 -150 21q-72 25 -106 53q-41 35 -68 76q-25 39 -39 88q-10 35 -10 90zM436 426q0 -104 45 -161.5t109 -57.5q37 0 80 16q41 16 82 51t75 105 q39 80 56 158q14 63 14 122q0 53 -16 99q-14 43 -39 63q-23 20 -51.5 32.5t-61.5 12.5q-84 0 -164 -79.5t-116 -249.5q-13 -59 -13 -111z" />
<glyph unicode="h" horiz-adv-x="1120" d="M119 0l309 1454h258l-115 -543q59 82 160 138q94 53 203 53q47 0 88 -21q47 -23 76 -55q31 -33 53 -96q20 -55 20 -131q0 -59 -16 -131l-141 -668h-258l114 537q23 113 23 178q0 84 -35 119q-33 33 -98 32q-39 0 -64 -8q-35 -12 -59 -29q-33 -23 -57 -59q-33 -49 -50 -94 q-18 -49 -38 -139l-115 -537h-258z" />
<glyph unicode="i" horiz-adv-x="532" d="M139 0l228 1073h258l-228 -1073h-258zM401 1298q0 10 5 35q12 70 65 113q57 47 115 47q51 0 83.5 -35t32.5 -90q0 -10 -4 -35q-16 -68 -67 -112q-53 -47 -113 -47q-51 0 -84 36q-33 35 -33 88z" />
<glyph unicode="j" horiz-adv-x="532" d="M-307 -334l207 172q8 -18 30 -28q25 -12 50 -13q49 0 90 31q40 31 49 80l248 1165h258l-236 -1108q-23 -102 -96 -192q-82 -98 -176 -150q-101 -55 -197 -55q-86 0 -135 20q-53 23 -92 78zM401 1298q0 10 5 35q12 70 65 113q57 47 115 47q51 0 83.5 -35t32.5 -90 q0 -10 -4 -35q-16 -68 -67 -112q-53 -47 -113 -47q-51 0 -84 36q-33 35 -33 88z" />
<glyph unicode="k" horiz-adv-x="997" d="M119 0l309 1454h258l-158 -737l359 356h313l-495 -475l290 -598h-293l-213 467l-18 -23l-94 -444h-258z" />
<glyph unicode="l" horiz-adv-x="559" d="M184 170q0 35 15 106l250 1178h258l-250 -1173q-2 -10 -2 -25q0 -61 75 -61l-47 -224q-147 0 -225 45q-74 43 -74 154z" />
<glyph unicode="m" horiz-adv-x="1574" d="M119 0l227 1073h258l-33 -158q16 20 56 60q18 18 71 59q41 31 88 49q49 18 95 19q41 0 73.5 -12.5t53.5 -32.5q8 -8 32 -43q14 -18 21 -49q2 -6 8 -47q4 -25 4 -37l2 -19q39 55 88 105q47 47 121 92q72 43 131 43q101 0 160 -68q57 -66 57 -198q0 -80 -20 -168l-142 -668 h-258l115 539q25 121 25 188.5t-24.5 104t-76.5 36.5q-80 0 -129 -84q-51 -86 -84 -245l-114 -539h-258l114 539q27 127 27 188q0 68 -24.5 104.5t-77.5 36.5q-80 0 -130 -82q-49 -84 -83 -247l-115 -539h-258z" />
<glyph unicode="n" horiz-adv-x="1120" d="M119 0l227 1073h258l-33 -162q59 82 160 138q94 53 203 53q47 0 88 -21q47 -23 76 -55q31 -33 53 -96q20 -55 20 -131q0 -59 -16 -131l-141 -668h-258l114 537q23 113 23 178q0 84 -35 119q-33 33 -98 32q-39 0 -64 -8q-35 -12 -59 -29q-33 -23 -57 -59q-33 -49 -50 -94 q-18 -49 -38 -139l-115 -537h-258z" />
<glyph unicode="o" horiz-adv-x="1103" d="M184 354q0 80 23 183q55 262 211 411q158 152 381 152q182 0 276 -101q96 -102 96 -280q0 -88 -20 -182q-53 -254 -213 -414q-152 -152 -379 -152q-184 0 -278 101q-97 102 -97 282zM442 399q0 -193 168 -192q221 0 291 330q18 78 19 139q0 190 -170 190 q-219 0 -291 -329q-17 -83 -17 -138z" />
<glyph unicode="p" horiz-adv-x="1130" d="M29 -426l317 1499h258l-33 -155q66 80 164.5 131t182.5 51q76 0 129 -27q57 -29 88 -74q35 -49 49 -112q16 -70 16 -144q0 -96 -24 -211q-25 -121 -68 -217q-41 -94 -106.5 -176t-145.5 -123q-86 -45 -178 -45q-88 0 -160 52q-76 53 -108 135l-123 -584h-258zM469 414 q0 -57 14 -99q14 -43 39 -63q27 -23 53 -35q23 -10 60 -10q78 0 164 86q84 84 119 244q14 63 14 125q0 106 -45 153q-47 51 -113 51q-35 0 -78 -16q-37 -14 -82 -53q-47 -39 -77 -103q-35 -70 -54 -157q-14 -64 -14 -123z" />
<glyph unicode="q" horiz-adv-x="1130" d="M164 326q0 104 22 206q33 150 101 283q63 125 167.5 205t231.5 80q84 0 162 -51q74 -49 106 -131l33 155h258l-256 -1210q-4 -25 -4 -31q0 -25 21 -33q25 -10 73 -10l-49 -238q-156 0 -231 52q-78 53 -78 166q0 47 8 90l64 299q-72 -86 -164 -135q-94 -51 -183 -52 q-68 0 -127 27q-57 25 -90 74q-35 49 -49 112q-16 70 -16 142zM436 426q0 -104 45 -161.5t109 -57.5q37 0 80 16q41 16 82 51t75 105q39 80 56 158q14 63 14 122q0 53 -16 99q-14 43 -39 63q-23 20 -51.5 32.5t-61.5 12.5q-84 0 -164 -79.5t-116 -249.5q-13 -59 -13 -111z " />
<glyph unicode="r" horiz-adv-x="856" d="M123 0l227 1073h258l-35 -162q63 82 146 136q86 55 143 55q53 0 101 -27q51 -29 84 -67l-140 -201q-98 61 -143 61q-55 0 -102.5 -28.5t-77.5 -77.5q-35 -55 -53.5 -100.5t-32.5 -108.5l-117 -553h-258z" />
<glyph unicode="s" horiz-adv-x="956" d="M139 291l242 39v-6q0 -57 41 -90t104 -33q27 0 59.5 4t49.5 10q29 10 43 31q18 25 22 49q2 6 2 16q0 23 -16 43q-15 18 -43 37q-25 16 -57 31q-12 6 -29.5 14l-40.5 19q-41 16 -70 37q-41 23 -69 45q-16 12 -49 45q-23 23 -33 57.5t-10 73.5q0 43 12 98q27 131 145 211 q115 78 285 78q80 0 141 -25q59 -25 99 -65q39 -43 57 -90q20 -55 20 -103v-16l-249 -43v10q0 59 -29 82q-27 20 -84 20q-59 0 -96 -18q-35 -16 -47 -70q-2 -6 -2 -16q0 -25 12 -39q14 -18 39 -31l55 -24l72 -31q47 -20 78 -37q84 -47 122.5 -100t38.5 -137q0 -43 -12 -97 q-29 -129 -162 -215q-131 -84 -301 -84q-160 0 -250 86.5t-90 233.5z" />
<glyph unicode="t" horiz-adv-x="704" d="M252 844l47 229h141l54 250h258l-54 -250h156l-49 -229h-156l-114 -547q-4 -20 -5 -27q0 -68 95 -67h39l-46 -217h-38q-170 0 -244 49t-74 151q0 45 12 107l117 551h-139z" />
<glyph unicode="u" horiz-adv-x="1110" d="M193 287q0 117 28 248l115 538h258l-115 -536q-18 -90 -18 -156q0 -55 10 -86q12 -37 31 -55q16 -16 41 -27q14 -6 47 -6q43 0 69 12q29 14 72 49q39 33 72 103q35 74 55 166l115 536h258l-227 -1073h-259l33 162q-63 -84 -160 -137q-94 -53 -196 -54q-109 0 -170 80 q-59 78 -59 236z" />
<glyph unicode="v" horiz-adv-x="1058" d="M299 1073h272l33 -686l340 686h248l-567 -1073h-213z" />
<glyph unicode="w" horiz-adv-x="1447" d="M285 1073h256l24 -670l275 674h231l-12 -669l311 665h244l-545 -1073h-217l4 664l-283 -664h-200z" />
<glyph unicode="x" horiz-adv-x="1052" d="M27 0l454 537l-209 536h291l119 -330l258 330h313l-456 -528l225 -545h-307l-119 336l-262 -336h-307z" />
<glyph unicode="y" horiz-adv-x="1105" d="M92 -223l227 110q6 -53 54 -88q45 -33 127 -32q84 0 149 47q63 45 82 127l47 221q-63 -84 -160 -137q-94 -53 -196 -54q-109 0 -170 80q-59 78 -59 236q0 117 28 248l115 538h258l-115 -536q-18 -90 -18 -156q0 -55 10 -86q12 -37 31 -55q16 -16 41 -27q14 -6 47 -6 q43 0 69 12q29 14 72 49q39 33 72 103q35 74 55 166l115 536h258l-221 -1044l-13 -58q-22 -108 -110 -209q-88 -100 -207 -163.5t-223 -63.5q-150 0 -244 70q-96 72 -121 172z" />
<glyph unicode="z" horiz-adv-x="1003" d="M66 0l614 834h-387l49 239h807l-614 -833h405l-51 -240h-823z" />
<glyph unicode="{" horiz-adv-x="745" d="M236 729q70 20 131 94q57 70 90 160q29 78 57 182l47 168q20 76 45 111q16 23 33 39q8 8 39 28q4 2 41 19q10 4 45 14q12 4 49 8q33 4 51 4q8 0 26.5 1.5t29 1.5t29 1t28.5 1l-45 -213q-86 0 -129 -31t-62 -121q-90 -410 -231 -467q70 -33 70 -184q0 -108 -37 -283 q-6 -33 -6 -59q0 -51 30 -72q29 -20 103 -20l-47 -213q-8 0 -22.5 1t-22.5 1h-46q-8 0 -20 1t-20 1q-2 0 -39 6q-6 2 -17.5 4t-17.5 2q-12 2 -33 10q-16 6 -27 15q-2 2 -6 4t-7 4t-6 5l-5 5q-12 16 -19 27q-8 16 -14 30q-2 10 -2 39q0 41 24.5 199t24.5 244q1 194 -112 233z " />
<glyph unicode="|" horiz-adv-x="466" d="M115 0l309 1454h244l-310 -1454h-243z" />
<glyph unicode="}" horiz-adv-x="745" d="M98 -102l47 213q84 0 129 32q43 31 62 119q86 410 231 467q-72 35 -71 186q0 109 36 281q8 31 9 61q0 49 -31 70q-29 20 -102 21l45 213q10 0 28.5 -1t28.5 -1t27.5 -1.5t25.5 -1.5q18 0 51 -4q25 -4 43 -8q29 -8 41 -14q27 -12 33 -19q12 -10 24.5 -28.5t18.5 -38.5 q4 -20 4 -39q0 -41 -24 -199q-27 -170 -27 -241q0 -195 115 -236q-72 -20 -131.5 -92t-92.5 -162q-31 -84 -57 -180l-47 -170q-20 -76 -45 -111q-8 -12 -26.5 -30.5t-28.5 -26.5l-31 -18q-10 -6 -34.5 -14.5t-37.5 -10.5l-37 -6q-37 -6 -41 -6q-8 0 -22 -1t-21 -1h-45 q-6 0 -22.5 -1t-24.5 -1z" />
<glyph unicode="~" horiz-adv-x="757" d="M174 567l51 242q25 16 33 22q27 20 41 29q2 2 15.5 11.5t23.5 13.5q33 16 47 20q20 6 45 6q27 0 53 -16q23 -14 45 -37l41 -45q27 -27 49 -39q27 -14 56 -14q33 0 74 20q47 25 63 37q20 14 63 49l-55 -260q-2 0 -6 -4t-13 -10l-18 -12l-49 -33q-12 -8 -51 -23 q-34 -12 -61 -12q-39 0 -76 25q-35 23 -60 51q-20 25 -55 51q-31 25 -55.5 25t-55.5 -11q-12 -4 -45 -20q-6 -2 -13 -7t-18.5 -12.5t-19.5 -13.5l-28.5 -19.5t-20.5 -13.5z" />
<glyph unicode="&#xa1;" horiz-adv-x="307" d="M557 1357.99q0 -10 -4 -35q-15 -68.001 -74 -117.005q-55 -47.0029 -127 -47.0078q-57 -0.00292969 -94 36.9951q-37 36.9971 -37 91.9971q0 23 2 35q15 68.001 74 117.005q55 47.0029 127 47.0078q57 0.00390625 94 -36.9941q39 -38.998 39 -91.998zM424 1019.99l-1 -2 q-1 -2 -1 -4l-160 -949.01q-10 -39.001 -62 -65.0039q-57 -29.0039 -98 -29.0059q-37 -0.00195312 -80 24.4951t-43 57.4971q0 2 1 6l1 4l242 951.015q6 23.001 45 41.0029q40 18.0029 68 18.0039q25 0.00195312 57 -15.9961q31 -14.998 31 -36.998z" />
<glyph unicode="&#xa2;" horiz-adv-x="882" d="M195 537q0 39 10 94q28 135 123 227q98 96 186 119l49 231h232l-50 -231q39 -8 89 -49q51 -43 75 -90l-184 -129h-2l-12 12q-16 16 -37 27q-25 12 -64 12q-57 0 -104 -39q-47 -37 -60 -92q-4 -25 -4 -37q0 -51 27 -80q29 -33 80 -33q20 0 53 8q8 2 33 11q4 2 31 24 q14 12 24 23l131 -137q-117 -115 -217 -123l-45 -207h-229l45 215q-84 16 -131 78q-49 65 -49 166z" />
<glyph unicode="&#xa3;" horiz-adv-x="1265" d="M135 0q25 51 80 143q66 111 117 211q57 111 80 195h-222l50 229h235q35 162 84 297q47 129 109 217q63 90 147 138q82 45 191 45q125 0 192 -80q66 -78 84 -256l-233 -23q0 18 -5 47q-2 18 -12 41q-8 20 -26 33q-14 10 -50 10q-29 0 -61 -28q-31 -29 -53 -76 q-18 -39 -39 -94q-20 -57 -29 -97l-20 -106l-17 -68h359l-49 -229h-355q-16 -51 -63 -164q-41 -98 -82 -154h463q29 0 59 25q33 27 49 51l115 -151q-104 -156 -275 -156h-823z" />
<glyph unicode="&#xa4;" horiz-adv-x="985" d="M119 305l69 334h111q-4 14 -4 49q0 31 6 62q10 55 41 108h-106l69 334h334l-23 -109q51 20 111 21q16 0 53 -6q39 -6 49 -15l25 109h334l-72 -334h-110v-43q0 -33 -7 -65q-8 -37 -45 -111h115l-70 -334h-333l24 119q-43 -18 -110 -18q-63 0 -103 16l-24 -117h-334z M551 731q0 -34 24 -55q23 -20 58 -21q39 0 74 29q33 27 43 68q4 16 4 22q0 35 -23 57q-20 20 -55 21q-43 0 -78 -29q-37 -29 -45 -71q-2 -9 -2 -21z" />
<glyph unicode="&#xa5;" horiz-adv-x="1134" d="M205 285l47 229h276l27 121h-276l49 229h170l-156 533h283l123 -508l356 508h262l-399 -533h155l-49 -229h-260l-27 -121h261l-48 -229h-260l-61 -285h-258l61 285h-276z" />
<glyph unicode="&#xa6;" horiz-adv-x="403" d="M80 0l141 666h246l-143 -666h-244zM244 768l141 666h244l-142 -666h-243z" />
<glyph unicode="&#xa7;" horiz-adv-x="692" d="M115 313l223 43v-6q0 -27 20 -45q23 -18 35 -18h4q35 0 62 32q31 37 47 84q-23 -18 -49 -18q-55 0 -99 21q-47 23 -82 59q-35 39 -57 100q-20 59 -20 140q0 78 16 149q29 131 88 237.5t150 180.5q84 70 176 69q94 0 141 -53q49 -55 88 -188l-225 -51v8q0 25 -19 41 q-16 14 -30 14q-53 0 -90 -106q14 8 30 8q113 0 193 -96q80 -95 80 -246q0 -47 -15 -119q-29 -133 -94 -244q-63 -109 -158 -182q-88 -70 -178 -70q-92 0 -149 60q-61 63 -88 196zM434 739q0 -68 20.5 -114.5t55.5 -46.5q2 -2 4 -3h2q18 0 23 17q10 45 10 82q0 63 -21 104 q-20 43 -59 43q-18 0 -29 -10q-6 -33 -6 -72z" />
<glyph unicode="&#xa8;" horiz-adv-x="931" d="M717 796q0 10 4 35q16 70 71.5 117t127.5 47q59 0 96 -37t37 -92q0 -10 -4 -35q-16 -70 -71.5 -117t-127.5 -47q-59 0 -96 37t-37 92zM246 796q0 10 4 35q16 70 71.5 117t127.5 47q59 0 96 -37t37 -92q0 -10 -4 -35q-16 -70 -71.5 -117t-127.5 -47q-59 0 -96 37t-37 92z " />
<glyph unicode="&#xa9;" horiz-adv-x="1087" d="M68 629q0 58 12 116q49 229 241.5 391t417.5 162q123 0 228 -57q96 -51 153 -156q55 -98 56 -223q0 -45 -15 -117q-31 -152 -131 -276q-109 -133 -239 -203q-141 -74 -287 -73q-127 0 -228 57q-98 55 -153 156q-55 98 -55 223zM252 672q0 -129 82 -211t215 -82 q152 0 285 108.5t163 262.5q10 45 11 79q0 125 -84 209t-217 84q-150 0 -283 -108q-131 -106 -166 -264q-6 -27 -6 -78zM371 696q0 28 6 56q20 104 112 180q88 74 195 74q111 0 168 -74l-137 -117q-29 29 -68 29q-37 0 -72 -29q-31 -25 -40 -65q-2 -6 -3 -19 q0 -35 20.5 -55.5t55.5 -20.5q47 0 82 27l86 -102q-102 -84 -201 -84q-88 0 -149 57q-55 53 -55 143z" />
<glyph unicode="&#xaa;" horiz-adv-x="1079" d="M156 268q0 39 10 90q33 160 164 273q129 111 278 110q94 0 162 -51q66 -49 72 -115l16 82q8 35 8 72q0 41 -12 72q-12 33 -33 49q-16 14 -49 29q-25 10 -53 14q-33 4 -55 4q-41 0 -93 -10q-59 -12 -71 -17q-27 -10 -66 -26l-67 164q55 39 155 65q109 29 185 29 q68 0 129 -12q72 -14 114 -37q53 -29 90 -68q43 -45 62 -100q20 -59 20 -135q0 -70 -14 -142l-66 -303l-63 -305h-258l29 135q-33 -63 -119 -115q-82 -49 -182 -49q-131 0 -211 82q-82 86 -82 215zM406 328q0 -59 45 -98.5t124 -39.5q88 0 150 50q63 49 78 116q4 20 4 31 q0 58 -43 98q-41 39 -119 39q-86 0 -156 -51q-66 -49 -81 -117q-2 -10 -2 -28z" />
<glyph unicode="&#xab;" horiz-adv-x="905" d="M227 827l250 291h219l-254 -291l127 -290h-215zM575 827l254 291h215l-253 -291l131 -290h-215z" />
<glyph unicode="&#xac;" horiz-adv-x="1118" d="M291 698l51 244h862l-127 -592h-229l74 348h-631z" />
<glyph unicode="&#xad;" horiz-adv-x="948" d="M285 926h772l-51 -240h-773z" />
<glyph unicode="&#xae;" horiz-adv-x="1222" d="M274 836q0 63 15 127q25 113 76 204q49 88 120 158q66 61 146 109q74 43 155 65q74 20 150 21q184 0 301 -119q119 -123 119 -309q0 -70 -15 -129q-35 -160 -135 -281q-106 -129 -237 -194.5t-269 -65.5q-59 0 -125 16q-61 15 -116 49q-55 35 -97 84q-39 49 -63 115 q-25 68 -25 150zM477 879q0 -63 25 -115q25 -55 61 -82q43 -33 86 -47q49 -16 94 -17q57 0 119 25q66 27 119 66q59 43 100 108q43 70 62 146q8 41 8 86q0 70 -23 120q-25 57 -63 86q-39 31 -84 50q-43 18 -88 18q-123 0 -248 -96q-121 -94 -158 -264q-10 -51 -10 -84z M573 713l109 518h141q106 0 160 -33q55 -35 55 -106q0 -27 -6 -54q-12 -47 -20 -61q-18 -29 -31 -39q-15 -12 -37 -25q-14 -8 -39 -20l58 -182h-152l-35 168l-26 4l-37 -170h-140zM770 981h21h20q47 0 63 10q14 8 23 47q2 8 2 23q0 23 -16 29q-25 8 -66 8h-22z" />
<glyph unicode="&#xaf;" horiz-adv-x="704" d="M254 940l47 231h604l-49 -231h-602z" />
<glyph unicode="&#xb0;" horiz-adv-x="761" d="M225 1114q0 23 8 64q29 131 140 221q114 92 245 92q113 0 184.5 -71.5t71.5 -176.5q0 -31 -6 -65q-27 -127 -139 -222q-109 -90 -244 -90q-115 0 -186 70q-74 70 -74 178zM403 1147q0 -53 33 -86t84 -33q61 0 111 43q51 45 63 107q4 25 4 34q0 49 -30.5 82t-83.5 33 q-59 0 -113 -43q-49 -41 -65 -106q-3 -11 -3 -31z" />
<glyph unicode="&#xb1;" horiz-adv-x="980" d="M223 432h772l-51 -239h-772zM352 1047h266l64 303h240l-64 -303h287l-51 -240h-287l-62 -287h-239l61 287h-266z" />
<glyph unicode="&#xb2;" d="M92 0q37 170 105 291q72 127 215 244q53 45 141 100l145 94q43 27 125 88q61 47 103 103q39 55 55 120q6 33 6 64q0 74 -41 110.5t-112 36.5q-83 0 -142 -43q-57 -43 -104 -133l-223 72q61 145 212.5 245.5t307.5 100.5q49 0 104 -10t101 -33q53 -27 86 -59 q41 -41 59 -93q23 -61 22 -131q0 -55 -16 -127q-25 -117 -78 -202q-49 -80 -164 -174q-61 -49 -194 -136q-129 -83 -221 -153q-96 -74 -131 -135h659l-51 -240h-969z" />
<glyph unicode="&#xb3;" d="M162 324l272 69q18 -96 76 -137q59 -43 133 -43q98 0 180 63q76 59 99 152q4 29 4 41q0 77 -56 129q-57 53 -135 53h-164l45 213h144q72 0 141 60q66 57 82 131q6 27 6 55q0 70 -43 106.5t-110 36.5q-59 0 -111 -32q-53 -35 -80 -78l-235 65q166 283 475 283 q78 0 143 -18q68 -18 117 -52q51 -33 82 -92q29 -55 28 -135q0 -55 -10 -98q-37 -170 -205 -277q45 -37 60 -51q31 -31 51 -61q25 -37 37 -82q14 -53 14 -99q0 -55 -10 -98q-39 -184 -213 -322q-172 -135 -387 -135q-113 0 -201 35t-149.5 115t-79.5 203z" />
<glyph unicode="&#xb4;" horiz-adv-x="575" d="M367 1229v10q2 10 8 14l274 314q18 18 47 18q43 0 82 -33q16 -12 25 -32q10 -25 10 -50q0 -14 -2 -20q-4 -20 -16 -33l-303 -284q-10 -10 -23 -11q-14 0 -39 11q-18 8 -33 22q-10 6 -20 33q-10 25 -10 41z" />
<glyph unicode="&#xb5;" horiz-adv-x="1126" d="M59 -397l273 1286h248l-91 -422q-8 -41 -8 -82q0 -51 15 -86q18 -43 36 -57q27 -20 49.5 -28.5t49.5 -8.5q66 0 139 86q72 82 90 176l90 422h244l-188 -889h-244l18 84q-31 -49 -94 -82q-59 -31 -100 -31q-55 0 -112.5 33t-70.5 74l-100 -475h-244z" />
<glyph unicode="&#xb6;" horiz-adv-x="1284" d="M315 918q0 35 11 90q18 84 80 157q59 72 149 121q89 49 197 86q115 39 213 53q115 16 209 17h272l-305 -1442h-649l131 618q-51 14 -95 31q-31 12 -82 41q-41 23 -69 55q-27 29 -45 74q-17 40 -17 99zM563 971q0 -29 12 -51q14 -25 29 -35q31 -20 35 -23q12 -6 33 -14 l63 297q-25 -8 -45 -19q-33 -16 -49 -26q-25 -14 -45 -39q-23 -27 -29 -53q-4 -25 -4 -37zM784 229h148l72 336q-29 0 -74 2t-74 2zM903 795q6 0 74 -7q20 -2 36.5 -4l25 -3t10.5 -1l96 449q-2 0 -11.5 -1t-28 -2t-36.5 -1q-20 0 -37.5 -1t-26 -2t-10.5 -1z" />
<glyph unicode="&#xb7;" horiz-adv-x="493" d="M252 731q0 10 4 35q16 70 71.5 117t127.5 47q59 0 96 -37t37 -92q0 -10 -4 -35q-16 -70 -71.5 -117t-127.5 -47q-59 0 -96 37t-37 92z" />
<glyph unicode="&#xb8;" horiz-adv-x="526" d="M6 -238l35 17q25 12 39 20l37 25q12 8 28 24q14 14 17 25q6 29 6 41q0 33 -27 70l183 90q68 -78 67 -164q0 -29 -4 -43q-8 -33 -18 -45q-20 -29 -32.5 -41t-45.5 -37q-16 -12 -49 -33q-45 -27 -54 -30q-31 -16 -51 -25q-27 -10 -45 -21z" />
<glyph unicode="&#xb9;" d="M485 1206l39 31l289 219h266l-309 -1456h-268l252 1184l4 22h-273z" />
<glyph unicode="&#xba;" horiz-adv-x="1103" d="M184 354q0 80 23 183q55 262 211 411q158 152 381 152q182 0 276 -101q96 -102 96 -280q0 -88 -20 -182q-53 -254 -213 -414q-152 -152 -379 -152q-184 0 -278 101q-97 102 -97 282zM442 399q0 -193 168 -192q221 0 291 330q18 78 19 139q0 190 -170 190 q-219 0 -291 -329q-17 -83 -17 -138z" />
<glyph unicode="&#xbb;" horiz-adv-x="980" d="M242 537l254 290l-131 291h215l131 -291l-254 -290h-215zM594 537l250 290l-131 291h219l127 -291l-250 -290h-215z" />
<glyph unicode="&#xbf;" horiz-adv-x="952" d="M968 352q-55 -170 -200.5 -278.5t-333.5 -108.5q-88 0 -158 20q-72 20 -129 60q-53 35 -88 98q-33 59 -33 137q0 45 8 84q12 61 50 137q29 59 71 107q39 43 82 76q47 37 88 63q29 18 78 56q41 31 62 59q27 37 34 70l27 131h268l-41 -195q-16 -68 -59 -121 q-39 -45 -102 -92l-113 -78q-53 -37 -102 -92q-46 -52 -62 -117q-2 -12 -2 -36q0 -45 25 -72q23 -27 61 -39q37 -12 82 -12q78 0 141 53q61 53 86 131zM884 1366q0 -10 -4 -35q-15 -68 -73 -117q-55 -47 -125 -47q-59 0 -96 37t-37 92q0 10 4 35q16 70 71.5 117t126.5 47 q57 0 94 -37q39 -39 39 -92z" />
<glyph unicode="&#xc0;" horiz-adv-x="1290" d="M776 1800v14q6 25 29 57q18 27 47 43q55 33 96 33q31 0 39 -18l143 -314l1 -2q1 -2 1 -4t-1 -4t-1 -4q-2 -14 -26 -45q-20 -27 -39 -39q-49 -33 -84 -33q-16 0 -21 11l-182 284q-2 7 -2 21zM20 0l873 1456h256l199 -1456h-308l-45 379h-446l-217 -379h-312zM674 625h299 l-51 424z" />
<glyph unicode="&#xc1;" horiz-adv-x="1290" d="M949 1596v10q2 10 8 14l274 314q18 18 47 18q43 0 82 -33q16 -12 25 -32q10 -25 10 -50q0 -14 -2 -20q-4 -20 -16 -33l-303 -284q-10 -10 -23 -11q-14 0 -39 11q-18 8 -33 22q-10 6 -20 33q-10 25 -10 41zM20 0l873 1456h256l199 -1456h-308l-45 379h-446l-217 -379h-312 zM674 625h299l-51 424z" />
<glyph unicode="&#xc2;" horiz-adv-x="1290" d="M633 1563l356 342h235l211 -344h-270l-98 160l-158 -158h-276zM20 0l873 1456h256l199 -1456h-308l-45 379h-446l-217 -379h-312zM674 625h299l-51 424z" />
<glyph unicode="&#xc3;" horiz-adv-x="1290" d="M717 1573l51 242q25 16 33 22q27 20 41 29q2 2 15.5 11.5t23.5 13.5q33 16 47 20q20 6 45 6q27 0 53 -16q23 -14 45 -37l41 -45q27 -27 49 -39q27 -14 56 -14q33 0 74 20q47 25 63 37q20 14 63 49l-55 -260q-2 0 -6 -4t-13 -10l-18 -12l-49 -33q-12 -8 -51 -23 q-34 -12 -61 -12q-39 0 -76 25q-35 23 -60 51q-20 25 -55 51q-31 25 -55.5 25t-55.5 -11q-12 -4 -45 -20q-6 -2 -13 -7t-18.5 -12.5t-19.5 -13.5l-28.5 -19.5t-20.5 -13.5zM20 0l873 1456h256l199 -1456h-308l-45 379h-446l-217 -379h-312zM674 625h299l-51 424z" />
<glyph unicode="&#xc4;" horiz-adv-x="1290" d="M1131 1632q0 10 4 35q16 70 71.5 117t127.5 47q59 0 96 -37t37 -92q0 -10 -4 -35q-16 -70 -71.5 -117t-127.5 -47q-59 0 -96 37t-37 92zM660 1632q0 10 4 35q16 70 71.5 117t127.5 47q59 0 96 -37t37 -92q0 -10 -4 -35q-16 -70 -71.5 -117t-127.5 -47q-59 0 -96 37 t-37 92zM20 0l873 1456h256l199 -1456h-308l-45 379h-446l-217 -379h-312zM674 625h299l-51 424z" />
<glyph unicode="&#xc5;" horiz-adv-x="1290" d="M760 1720q0 23 8 64q29 131 140 221q114 92 245 92q113 0 184.5 -71.5t71.5 -176.5q0 -31 -6 -65q-27 -127 -139 -222q-109 -90 -244 -90q-115 0 -186 70q-74 70 -74 178zM938 1753q0 -53 33 -86t84 -33q61 0 111 43q51 45 63 107q4 25 4 34q0 49 -30.5 82t-83.5 33 q-59 0 -113 -43q-49 -41 -65 -106q-3 -11 -3 -31zM20 0l873 1456h256l199 -1456h-308l-45 379h-446l-217 -379h-312zM674 625h299l-51 424z" />
<glyph unicode="&#xc6;" horiz-adv-x="1587" d="M10 0l885 1456h887l-53 -254h-388l-77 -362h389l-56 -250h-389l-71 -340h389l-53 -250h-654l127 596h-278l-361 -596h-297zM799 840h198l95 446z" />
<glyph unicode="&#xc7;" horiz-adv-x="1218" d="M430 -347l35 17q25 12 39 20l37 25q12 8 28 24q14 14 17 25q6 29 6 41q0 33 -27 70l183 90q68 -78 67 -164q0 -29 -4 -43q-8 -33 -18 -45q-20 -29 -32.5 -41t-45.5 -37q-16 -12 -49 -33q-45 -27 -54 -30q-31 -16 -51 -25q-27 -10 -45 -21zM229 494q0 121 31 260 q23 111 69 223q45 113 111 203q66 92 156 166q86 72 205 110q123 41 253 41q84 0 168 -27q74 -23 129 -69q47 -39 84 -98q31 -51 48 -115l-275 -90q-25 66 -84 112.5t-121 46.5q-76 0 -145 -28q-72 -29 -119 -74q-47 -43 -88 -111q-41 -66 -66 -137t-43 -153 q-23 -104 -22 -209q0 -76 14 -133q16 -61 45 -107q33 -49 80 -72q51 -25 119 -24q135 0 293 201l237 -101q-229 -342 -579 -342q-113 0 -195 27q-86 28 -141 74q-55 45 -92 114q-43 78 -55 144q-17 82 -17 168z" />
<glyph unicode="&#xc8;" horiz-adv-x="983" d="M727 1809v14q6 25 29 57q18 27 47 43q55 33 96 33q31 0 39 -18l143 -314l1 -2q1 -2 1 -4t-1 -4t-1 -4q-2 -14 -26 -45q-20 -27 -39 -39q-49 -33 -84 -33q-16 0 -21 11l-182 284q-2 7 -2 21zM115 0l309 1456h983l-51 -239h-715l-74 -351h652l-52 -239h-651l-82 -387h715 l-51 -240h-983z" />
<glyph unicode="&#xc9;" horiz-adv-x="1148" d="M865 1600v10q2 10 8 14l274 314q18 18 47 18q43 0 82 -33q16 -12 25 -32q10 -25 10 -50q0 -14 -2 -20q-4 -20 -16 -33l-303 -284q-10 -10 -23 -11q-14 0 -39 11q-18 8 -33 22q-10 6 -20 33q-10 25 -10 41zM115 0l309 1456h983l-51 -239h-715l-74 -351h652l-52 -239h-651 l-82 -387h715l-51 -240h-983z" />
<glyph unicode="&#xca;" horiz-adv-x="1148" d="M574 1540l356 342h235l211 -344h-270l-98 160l-158 -158h-276zM115 0l309 1456h983l-51 -239h-715l-74 -351h652l-52 -239h-651l-82 -387h715l-51 -240h-983z" />
<glyph unicode="&#xcb;" horiz-adv-x="1148" d="M1082 1646q0 10 4 35q16 70 71.5 117t127.5 47q59 0 96 -37t37 -92q0 -10 -4 -35q-16 -70 -71.5 -117t-127.5 -47q-59 0 -96 37t-37 92zM611 1646q0 10 4 35q16 70 71.5 117t127.5 47q59 0 96 -37t37 -92q0 -10 -4 -35q-16 -70 -71.5 -117t-127.5 -47q-59 0 -96 37 t-37 92zM115 0l309 1456h983l-51 -239h-715l-74 -351h652l-52 -239h-651l-82 -387h715l-51 -240h-983z" />
<glyph unicode="&#xcc;" horiz-adv-x="665" d="M342 1809v14q6 25 29 57q18 27 47 43q55 33 96 33q31 0 39 -18l143 -314l1 -2q1 -2 1 -4t-1 -4t-1 -4q-2 -14 -26 -45q-20 -27 -39 -39q-49 -33 -84 -33q-16 0 -21 11l-182 284q-2 7 -2 21zM143 0l310 1456h268l-309 -1456h-269z" />
<glyph unicode="&#xcd;" horiz-adv-x="665" d="M498 1591v10q2 10 8 14l274 314q18 18 47 18q43 0 82 -33q16 -12 25 -32q10 -25 10 -50q0 -14 -2 -20q-4 -20 -16 -33l-303 -284q-10 -10 -23 -11q-14 0 -39 11q-18 8 -33 22q-10 6 -20 33q-10 25 -10 41zM143 0l310 1456h268l-309 -1456h-269z" />
<glyph unicode="&#xce;" horiz-adv-x="665" d="M197 1540l356 342h235l211 -344h-270l-98 160l-158 -158h-276zM143 0l310 1456h268l-309 -1456h-269z" />
<glyph unicode="&#xcf;" horiz-adv-x="665" d="M711 1658q0 10 4 35q16 70 71.5 117t127.5 47q59 0 96 -37t37 -92q0 -10 -4 -35q-16 -70 -71.5 -117t-127.5 -47q-59 0 -96 37t-37 92zM240 1658q0 10 4 35q16 70 71.5 117t127.5 47q59 0 96 -37t37 -92q0 -10 -4 -35q-16 -70 -71.5 -117t-127.5 -47q-59 0 -96 37t-37 92 zM143 0l310 1456h268l-309 -1456h-269z" />
<glyph unicode="&#xd0;" horiz-adv-x="1478" d="M260 0l129 612h-125l51 240h125l129 604h437q119 0 223 -41q106 -41 168 -112q68 -78 100 -173q35 -100 35 -219q0 -94 -21 -184q-31 -145 -108 -285q-74 -131 -184 -231q-109 -98 -242 -154q-139 -57 -281 -57h-225h-211zM580 244h168q172 0 311 133t186 350 q14 66 15 137q0 158 -82 252t-226 94h-168l-75 -358h245l-51 -240h-246z" />
<glyph unicode="&#xd1;" horiz-adv-x="1290" d="M651 1552l51 242q25 16 33 22q27 20 41 29q2 2 15.5 11.5t23.5 13.5q33 16 47 20q20 6 45 6q27 0 53 -16q23 -14 45 -37l41 -45q27 -27 49 -39q27 -14 56 -14q33 0 74 20q47 25 63 37q20 14 63 49l-55 -260q-2 0 -6 -4t-13 -10l-18 -12l-49 -33q-12 -8 -51 -23 q-34 -12 -61 -12q-39 0 -76 25q-35 23 -60 51q-20 25 -55 51q-31 25 -55.5 25t-55.5 -11q-12 -4 -45 -20q-6 -2 -13 -7t-18.5 -12.5t-19.5 -13.5l-28.5 -19.5t-20.5 -13.5zM119 0l309 1456h260l375 -940l199 940h268l-309 -1456h-265l-362 973l-207 -973h-268z" />
<glyph unicode="&#xd2;" horiz-adv-x="1345" d="M791 1833v14q6 25 29 57q18 27 47 43q55 33 96 33q31 0 39 -18l143 -314l1 -2q1 -2 1 -4t-1 -4t-1 -4q-2 -14 -26 -45q-20 -27 -39 -39q-49 -33 -84 -33q-16 0 -21 11l-182 284q-2 7 -2 21zM236 526q0 114 24 228q14 68 41 143q18 53 64 143q33 66 84 138q39 55 110 122 q51 47 133 99q63 39 158 65q86 25 180 25q111 0 189 -29q86 -33 137 -80q53 -49 90 -120q33 -61 49 -144q16 -78 16 -158q0 -96 -22 -204q-20 -104 -66 -213q-47 -117 -110 -209q-72 -106 -156 -184t-200.5 -127.5t-247.5 -49.5q-102 0 -184.5 31t-135.5 84q-59 59 -88 123 q-35 76 -49 151q-16 86 -16 166zM518 541q0 -41 8 -103q6 -47 25 -90q18 -41 45 -72q23 -25 70 -45q43 -18 94 -18q76 0 139 33q66 35 115 86q39 41 86 125q41 74 65 145q27 80 41 152q23 102 23 186q0 68 -12.5 119t-41 96t-77.5 69.5t-117 24.5q-90 0 -170 -45 q-74 -41 -129 -119q-47 -66 -84 -157q-35 -84 -55 -174q-25 -115 -25 -213z" />
<glyph unicode="&#xd3;" horiz-adv-x="1345" d="M930 1632v10q2 10 8 14l274 314q18 18 47 18q43 0 82 -33q16 -12 25 -32q10 -25 10 -50q0 -14 -2 -20q-4 -20 -16 -33l-303 -284q-10 -10 -23 -11q-14 0 -39 11q-18 8 -33 22q-10 6 -20 33q-10 25 -10 41zM236 526q0 114 24 228q14 68 41 143q18 53 64 143q33 66 84 138 q39 55 110 122q51 47 133 99q63 39 158 65q86 25 180 25q111 0 189 -29q86 -33 137 -80q53 -49 90 -120q33 -61 49 -144q16 -78 16 -158q0 -96 -22 -204q-20 -104 -66 -213q-47 -117 -110 -209q-72 -106 -156 -184t-200.5 -127.5t-247.5 -49.5q-102 0 -184.5 31t-135.5 84 q-59 59 -88 123q-35 76 -49 151q-16 86 -16 166zM518 541q0 -41 8 -103q6 -47 25 -90q18 -41 45 -72q23 -25 70 -45q43 -18 94 -18q76 0 139 33q66 35 115 86q39 41 86 125q41 74 65 145q27 80 41 152q23 102 23 186q0 68 -12.5 119t-41 96t-77.5 69.5t-117 24.5 q-90 0 -170 -45q-74 -41 -129 -119q-47 -66 -84 -157q-35 -84 -55 -174q-25 -115 -25 -213z" />
<glyph unicode="&#xd4;" horiz-adv-x="1345" d="M650 1565l356 342h235l211 -344h-270l-98 160l-158 -158h-276zM236 526q0 114 24 228q14 68 41 143q18 53 64 143q33 66 84 138q39 55 110 122q51 47 133 99q63 39 158 65q86 25 180 25q111 0 189 -29q86 -33 137 -80q53 -49 90 -120q33 -61 49 -144q16 -78 16 -158 q0 -96 -22 -204q-20 -104 -66 -213q-47 -117 -110 -209q-72 -106 -156 -184t-200.5 -127.5t-247.5 -49.5q-102 0 -184.5 31t-135.5 84q-59 59 -88 123q-35 76 -49 151q-16 86 -16 166zM518 541q0 -41 8 -103q6 -47 25 -90q18 -41 45 -72q23 -25 70 -45q43 -18 94 -18 q76 0 139 33q66 35 115 86q39 41 86 125q41 74 65 145q27 80 41 152q23 102 23 186q0 68 -12.5 119t-41 96t-77.5 69.5t-117 24.5q-90 0 -170 -45q-74 -41 -129 -119q-47 -66 -84 -157q-35 -84 -55 -174q-25 -115 -25 -213z" />
<glyph unicode="&#xd5;" horiz-adv-x="1345" d="M745 1603l51 242q25 16 33 22q27 20 41 29q2 2 15.5 11.5t23.5 13.5q33 16 47 20q20 6 45 6q27 0 53 -16q23 -14 45 -37l41 -45q27 -27 49 -39q27 -14 56 -14q33 0 74 20q47 25 63 37q20 14 63 49l-55 -260q-2 0 -6 -4t-13 -10l-18 -12l-49 -33q-12 -8 -51 -23 q-34 -12 -61 -12q-39 0 -76 25q-35 23 -60 51q-20 25 -55 51q-31 25 -55.5 25t-55.5 -11q-12 -4 -45 -20q-6 -2 -13 -7t-18.5 -12.5t-19.5 -13.5l-28.5 -19.5t-20.5 -13.5zM236 526q0 114 24 228q14 68 41 143q18 53 64 143q33 66 84 138q39 55 110 122q51 47 133 99 q63 39 158 65q86 25 180 25q111 0 189 -29q86 -33 137 -80q53 -49 90 -120q33 -61 49 -144q16 -78 16 -158q0 -96 -22 -204q-20 -104 -66 -213q-47 -117 -110 -209q-72 -106 -156 -184t-200.5 -127.5t-247.5 -49.5q-102 0 -184.5 31t-135.5 84q-59 59 -88 123 q-35 76 -49 151q-16 86 -16 166zM518 541q0 -41 8 -103q6 -47 25 -90q18 -41 45 -72q23 -25 70 -45q43 -18 94 -18q76 0 139 33q66 35 115 86q39 41 86 125q41 74 65 145q27 80 41 152q23 102 23 186q0 68 -12.5 119t-41 96t-77.5 69.5t-117 24.5q-90 0 -170 -45 q-74 -41 -129 -119q-47 -66 -84 -157q-35 -84 -55 -174q-25 -115 -25 -213z" />
<glyph unicode="&#xd6;" horiz-adv-x="1345" d="M1153 1697q0 10 4 35q16 70 71.5 117t127.5 47q59 0 96 -37t37 -92q0 -10 -4 -35q-16 -70 -71.5 -117t-127.5 -47q-59 0 -96 37t-37 92zM682 1697q0 10 4 35q16 70 71.5 117t127.5 47q59 0 96 -37t37 -92q0 -10 -4 -35q-16 -70 -71.5 -117t-127.5 -47q-59 0 -96 37 t-37 92zM236 526q0 114 24 228q14 68 41 143q18 53 64 143q33 66 84 138q39 55 110 122q51 47 133 99q63 39 158 65q86 25 180 25q111 0 189 -29q86 -33 137 -80q53 -49 90 -120q33 -61 49 -144q16 -78 16 -158q0 -96 -22 -204q-20 -104 -66 -213q-47 -117 -110 -209 q-72 -106 -156 -184t-200.5 -127.5t-247.5 -49.5q-102 0 -184.5 31t-135.5 84q-59 59 -88 123q-35 76 -49 151q-16 86 -16 166zM518 541q0 -41 8 -103q6 -47 25 -90q18 -41 45 -72q23 -25 70 -45q43 -18 94 -18q76 0 139 33q66 35 115 86q39 41 86 125q41 74 65 145 q27 80 41 152q23 102 23 186q0 68 -12.5 119t-41 96t-77.5 69.5t-117 24.5q-90 0 -170 -45q-74 -41 -129 -119q-47 -66 -84 -157q-35 -84 -55 -174q-25 -115 -25 -213z" />
<glyph unicode="&#xd7;" horiz-adv-x="831" d="M284.255 366.619l-135.274 204.699l187.295 190.277l-171.758 257.443l169.758 172.461l169.652 -259.582l202.727 205.955l135.275 -204.7l-202.728 -205.954l161.757 -244.796l-166.951 -169.609l-163.16 243.37z" />
<glyph unicode="&#xd8;" horiz-adv-x="2476" d="M236 535q0 94 20 192q27 125 66 221q41 102 112 207q66 94 156 172q92 78 201 119q117 43 245 43q100 0 158 -23l12 27h273l-93 -145q123 -141 123 -383q0 -113 -24 -238q-16 -72 -58 -180q-37 -92 -104 -199q-63 -98 -152 -186q-80 -80 -204 -137q-115 -53 -258 -54 q-80 0 -164 23l-19 -23h-284l102 164q-55 70 -82 176q-26 105 -26 224zM520 545q0 -82 10 -119l519 815l-3 1q-3 1 -9.5 2t-10.5 1q-25 4 -41 4q-82 0 -147 -32q-72 -37 -115 -84q-49 -55 -86 -121q-39 -70 -62 -140q-27 -84 -38 -145q-17 -78 -17 -182zM684 223 q4 0 20.5 -4t22.5 -4q4 0 14.5 -1t16.5 -1q80 0 143 35q76 41 117 90q45 53 86 127q40 71 61 135q29 88 37 127q25 121 25 207q0 74 -15 133z" />
<glyph unicode="&#xd9;" horiz-adv-x="1296" d="M750 1809v14q6 25 29 57q18 27 47 43q55 33 96 33q31 0 39 -18l143 -314l1 -2q1 -2 1 -4t-1 -4t-1 -4q-2 -14 -26 -45q-20 -27 -39 -39q-49 -33 -84 -33q-16 0 -21 11l-182 284q-2 7 -2 21zM229 440q0 111 29 254l162 762h274l-162 -762q-27 -125 -26 -225 q0 -256 196 -256q270 0 375 481l162 762h274l-161 -762q-74 -342 -258.5 -532.5t-442.5 -190.5q-207 0 -313 121q-109 125 -109 348z" />
<glyph unicode="&#xda;" horiz-adv-x="1296" d="M879 1596v10q2 10 8 14l274 314q18 18 47 18q43 0 82 -33q16 -12 25 -32q10 -25 10 -50q0 -14 -2 -20q-4 -20 -16 -33l-303 -284q-10 -10 -23 -11q-14 0 -39 11q-18 8 -33 22q-10 6 -20 33q-10 25 -10 41zM229 440q0 111 29 254l162 762h274l-162 -762q-27 -125 -26 -225 q0 -256 196 -256q270 0 375 481l162 762h274l-161 -762q-74 -342 -258.5 -532.5t-442.5 -190.5q-207 0 -313 121q-109 125 -109 348z" />
<glyph unicode="&#xdb;" horiz-adv-x="1296" d="M588 1569l356 342h235l211 -344h-270l-98 160l-158 -158h-276zM229 440q0 111 29 254l162 762h274l-162 -762q-27 -125 -26 -225q0 -256 196 -256q270 0 375 481l162 762h274l-161 -762q-74 -342 -258.5 -532.5t-442.5 -190.5q-207 0 -313 121q-109 125 -109 348z" />
<glyph unicode="&#xdc;" horiz-adv-x="1296" d="M1092 1660q0 10 4 35q16 70 71.5 117t127.5 47q59 0 96 -37t37 -92q0 -10 -4 -35q-16 -70 -71.5 -117t-127.5 -47q-59 0 -96 37t-37 92zM621 1660q0 10 4 35q16 70 71.5 117t127.5 47q59 0 96 -37t37 -92q0 -10 -4 -35q-16 -70 -71.5 -117t-127.5 -47q-59 0 -96 37 t-37 92zM229 440q0 111 29 254l162 762h274l-162 -762q-27 -125 -26 -225q0 -256 196 -256q270 0 375 481l162 762h274l-161 -762q-74 -342 -258.5 -532.5t-442.5 -190.5q-207 0 -313 121q-109 125 -109 348z" />
<glyph unicode="&#xdd;" horiz-adv-x="1177" d="M883 1596v10q2 10 8 14l274 314q18 18 47 18q43 0 82 -33q16 -12 25 -32q10 -25 10 -50q0 -14 -2 -20q-4 -20 -16 -33l-303 -284q-10 -10 -23 -11q-14 0 -39 11q-18 8 -33 22q-10 6 -20 33q-10 25 -10 41zM375 1456h284l197 -536l424 536h279l-613 -751l-149 -705h-269 l150 705z" />
<glyph unicode="&#xde;" horiz-adv-x="1382" d="M135 0l309 1456h269l-56 -258q106 0 181 -8q78 -8 159 -35q80 -25 129 -63q59 -45 86 -99q31 -61 31 -139q0 -49 -12 -104q-20 -94 -62 -168q-40 -74 -98 -123q-63 -53 -125 -84q-70 -35 -151 -53q-76 -16 -160 -27q-72 -8 -170 -8l-62 -287h-268zM514 526 q72 0 147.5 10.5t135.5 32.5q68 27 108 70q45 47 60 111q4 14 4 41q0 170 -363 170z" />
<glyph unicode="&#xdf;" horiz-adv-x="1259" d="M61 0q33 51 80 238q55 219 88 383q37 184 97 387q55 188 100 252q197 268 545 268q172 0 272 -94q98 -92 98 -248q0 -55 -12 -113q-29 -131 -94 -207q-68 -76 -139 -98q18 -6 49 -29q27 -20 51 -57q27 -41 41 -88q14 -49 14 -111q0 -45 -8 -84q-31 -143 -119 -239.5 t-219 -143.5q-127 -45 -293 -45q-154 0 -192 52l141 202l14 -14q2 -2 23 -10q15 -6 37 -6q139 0 237.5 49t118.5 155q4 29 4 39q0 90 -84 152q-80 59 -231 59h-37h4q2 2 2 4t1 3q1 2 3 3l4 13q2 6 11 22l47 150q49 0 106 10q47 8 107 35q51 23 94 72q37 43 53 112 q10 47 10 78q0 143 -165 143q-190 0 -299 -153q-41 -59 -101 -307l-125 -510q-66 -262 -100 -324h-234z" />
<glyph unicode="&#xe0;" horiz-adv-x="1034" d="M612 1461v14q6 25 29 57q18 27 47 43q55 33 96 33q31 0 39 -18l143 -314l1 -2q1 -2 1 -4t-1 -4t-1 -4q-2 -14 -26 -45q-20 -27 -39 -39q-49 -33 -84 -33q-16 0 -21 11l-182 284q-2 7 -2 21zM156 268q0 39 10 90q33 160 164 273q129 111 278 110q94 0 162 -51 q66 -49 72 -115l16 82q8 35 8 72q0 41 -12 72q-12 33 -33 49q-16 14 -49 29q-25 10 -53 14q-33 4 -55 4q-41 0 -93 -10q-59 -12 -71 -17q-27 -10 -66 -26l-67 164q55 39 155 65q109 29 185 29q68 0 129 -12q72 -14 114 -37q53 -29 90 -68q43 -45 62 -100q20 -59 20 -135 q0 -70 -14 -142l-66 -303l-63 -305h-258l29 135q-33 -63 -119 -115q-82 -49 -182 -49q-131 0 -211 82q-82 86 -82 215zM406 328q0 -59 45 -98.5t124 -39.5q88 0 150 50q63 49 78 116q4 20 4 31q0 58 -43 98q-41 39 -119 39q-86 0 -156 -51q-66 -49 -81 -117q-2 -10 -2 -28z " />
<glyph unicode="&#xe1;" horiz-adv-x="1034" d="M672 1247v10q2 10 8 14l274 314q18 18 47 18q43 0 82 -33q16 -12 25 -32q10 -25 10 -50q0 -14 -2 -20q-4 -20 -16 -33l-303 -284q-10 -10 -23 -11q-14 0 -39 11q-18 8 -33 22q-10 6 -20 33q-10 25 -10 41zM156 268q0 39 10 90q33 160 164 273q129 111 278 110 q94 0 162 -51q66 -49 72 -115l16 82q8 35 8 72q0 41 -12 72q-12 33 -33 49q-16 14 -49 29q-25 10 -53 14q-33 4 -55 4q-41 0 -93 -10q-59 -12 -71 -17q-27 -10 -66 -26l-67 164q55 39 155 65q109 29 185 29q68 0 129 -12q72 -14 114 -37q53 -29 90 -68q43 -45 62 -100 q20 -59 20 -135q0 -70 -14 -142l-66 -303l-63 -305h-258l29 135q-33 -63 -119 -115q-82 -49 -182 -49q-131 0 -211 82q-82 86 -82 215zM406 328q0 -59 45 -98.5t124 -39.5q88 0 150 50q63 49 78 116q4 20 4 31q0 58 -43 98q-41 39 -119 39q-86 0 -156 -51q-66 -49 -81 -117 q-2 -10 -2 -28z" />
<glyph unicode="&#xe2;" horiz-adv-x="1034" d="M369 1141l356 342h235l211 -344h-270l-98 160l-158 -158h-276zM156 268q0 39 10 90q33 160 164 273q129 111 278 110q94 0 162 -51q66 -49 72 -115l16 82q8 35 8 72q0 41 -12 72q-12 33 -33 49q-16 14 -49 29q-25 10 -53 14q-33 4 -55 4q-41 0 -93 -10q-59 -12 -71 -17 q-27 -10 -66 -26l-67 164q55 39 155 65q109 29 185 29q68 0 129 -12q72 -14 114 -37q53 -29 90 -68q43 -45 62 -100q20 -59 20 -135q0 -70 -14 -142l-66 -303l-63 -305h-258l29 135q-33 -63 -119 -115q-82 -49 -182 -49q-131 0 -211 82q-82 86 -82 215zM406 328 q0 -59 45 -98.5t124 -39.5q88 0 150 50q63 49 78 116q4 20 4 31q0 58 -43 98q-41 39 -119 39q-86 0 -156 -51q-66 -49 -81 -117q-2 -10 -2 -28z" />
<glyph unicode="&#xe3;" horiz-adv-x="1034" d="M508 1198l51 242q25 16 33 22q27 20 41 29q2 2 15.5 11.5t23.5 13.5q33 16 47 20q20 6 45 6q27 0 53 -16q23 -14 45 -37l41 -45q27 -27 49 -39q27 -14 56 -14q33 0 74 20q47 25 63 37q20 14 63 49l-55 -260q-2 0 -6 -4t-13 -10l-18 -12l-49 -33q-12 -8 -51 -23 q-34 -12 -61 -12q-39 0 -76 25q-35 23 -60 51q-20 25 -55 51q-31 25 -55.5 25t-55.5 -11q-12 -4 -45 -20q-6 -2 -13 -7t-18.5 -12.5t-19.5 -13.5l-28.5 -19.5t-20.5 -13.5zM156 268q0 39 10 90q33 160 164 273q129 111 278 110q94 0 162 -51q66 -49 72 -115l16 82q8 35 8 72 q0 41 -12 72q-12 33 -33 49q-16 14 -49 29q-25 10 -53 14q-33 4 -55 4q-41 0 -93 -10q-59 -12 -71 -17q-27 -10 -66 -26l-67 164q55 39 155 65q109 29 185 29q68 0 129 -12q72 -14 114 -37q53 -29 90 -68q43 -45 62 -100q20 -59 20 -135q0 -70 -14 -142l-66 -303l-63 -305 h-258l29 135q-33 -63 -119 -115q-82 -49 -182 -49q-131 0 -211 82q-82 86 -82 215zM406 328q0 -59 45 -98.5t124 -39.5q88 0 150 50q63 49 78 116q4 20 4 31q0 58 -43 98q-41 39 -119 39q-86 0 -156 -51q-66 -49 -81 -117q-2 -10 -2 -28z" />
<glyph unicode="&#xe4;" horiz-adv-x="1034" d="M916 1300q0 10 4 35q16 70 71.5 117t127.5 47q59 0 96 -37t37 -92q0 -10 -4 -35q-16 -70 -71.5 -117t-127.5 -47q-59 0 -96 37t-37 92zM445 1300q0 10 4 35q16 70 71.5 117t127.5 47q59 0 96 -37t37 -92q0 -10 -4 -35q-16 -70 -71.5 -117t-127.5 -47q-59 0 -96 37t-37 92 zM156 268q0 39 10 90q33 160 164 273q129 111 278 110q94 0 162 -51q66 -49 72 -115l16 82q8 35 8 72q0 41 -12 72q-12 33 -33 49q-16 14 -49 29q-25 10 -53 14q-33 4 -55 4q-41 0 -93 -10q-59 -12 -71 -17q-27 -10 -66 -26l-67 164q55 39 155 65q109 29 185 29 q68 0 129 -12q72 -14 114 -37q53 -29 90 -68q43 -45 62 -100q20 -59 20 -135q0 -70 -14 -142l-66 -303l-63 -305h-258l29 135q-33 -63 -119 -115q-82 -49 -182 -49q-131 0 -211 82q-82 86 -82 215zM406 328q0 -59 45 -98.5t124 -39.5q88 0 150 50q63 49 78 116q4 20 4 31 q0 58 -43 98q-41 39 -119 39q-86 0 -156 -51q-66 -49 -81 -117q-2 -10 -2 -28z" />
<glyph unicode="&#xe5;" horiz-adv-x="1034" d="M514 1362q0 23 8 64q29 131 140 221q114 92 245 92q113 0 184.5 -71.5t71.5 -176.5q0 -31 -6 -65q-27 -127 -139 -222q-109 -90 -244 -90q-115 0 -186 70q-74 70 -74 178zM692 1395q0 -53 33 -86t84 -33q61 0 111 43q51 45 63 107q4 25 4 34q0 49 -30.5 82t-83.5 33 q-59 0 -113 -43q-49 -41 -65 -106q-3 -11 -3 -31zM156 268q0 39 10 90q33 160 164 273q129 111 278 110q94 0 162 -51q66 -49 72 -115l16 82q8 35 8 72q0 41 -12 72q-12 33 -33 49q-16 14 -49 29q-25 10 -53 14q-33 4 -55 4q-41 0 -93 -10q-59 -12 -71 -17q-27 -10 -66 -26 l-67 164q55 39 155 65q109 29 185 29q68 0 129 -12q72 -14 114 -37q53 -29 90 -68q43 -45 62 -100q20 -59 20 -135q0 -70 -14 -142l-66 -303l-63 -305h-258l29 135q-33 -63 -119 -115q-82 -49 -182 -49q-131 0 -211 82q-82 86 -82 215zM406 328q0 -59 45 -98.5t124 -39.5 q88 0 150 50q63 49 78 116q4 20 4 31q0 58 -43 98q-41 39 -119 39q-86 0 -156 -51q-66 -49 -81 -117q-2 -10 -2 -28z" />
<glyph unicode="&#xe6;" horiz-adv-x="1763" d="M156 268q0 39 10 90q33 160 164 273q129 111 278 110q94 0 162 -51q66 -49 72 -112q2 12 6 32q2 12 6 27.5t4 19.5q8 35 8 72q0 41 -12 72q-12 33 -33 49q-16 14 -49 29q-25 10 -53 14q-33 4 -55 4q-41 0 -93 -10q-59 -12 -71 -17q-27 -10 -66 -26l-67 164q55 39 155 65 q109 29 185 29q260 0 362 -154q168 150 363 150q166 0 260 -111q96 -113 96 -293q0 -76 -19 -157l-14 -68h-663q-8 -41 -9 -86q0 -49 11 -78q14 -39 28 -53q20 -20 41 -31q29 -14 45 -16q29 -4 43 -4q98 0 168 65l207 -96q-80 -96 -199 -147q-117 -51 -225 -52 q-123 0 -217 64l-6 -35h-258l29 135q-33 -63 -119 -115q-82 -49 -182 -49q-131 0 -211 82q-82 86 -82 215zM406 328q0 -59 45 -98.5t124 -39.5q88 0 150 50q63 49 78 116q4 20 4 31q0 58 -43 98q-41 39 -119 39q-86 0 -156 -51q-66 -49 -81 -117q-2 -10 -2 -28zM1130 651 h414q2 14 2 37q0 82 -41 129q-45 51 -123 51q-92 0 -157 -63q-70 -68 -95 -154z" />
<glyph unicode="&#xe7;" horiz-adv-x="845" d="M242 -342l35 17q25 12 39 20l37 25q12 8 28 24q14 14 17 25q6 29 6 41q0 33 -27 70l183 90q68 -78 67 -164q0 -29 -4 -43q-8 -33 -18 -45q-20 -29 -32.5 -41t-45.5 -37q-16 -12 -49 -33q-45 -27 -54 -30q-31 -16 -51 -25q-27 -10 -45 -21zM180 375q0 76 19 157 q55 254 229 410q176 158 391 158q119 0 213 -64q98 -68 131 -168l-235 -112q-41 115 -158 114q-98 0 -188 -96t-121 -242q-10 -41 -10 -96q0 -109 53 -170q55 -63 145 -63q33 0 68 10q25 6 47 27q18 14 35 34q23 25 30 41l191 -110q-80 -98 -190.5 -166t-229.5 -68 q-197 0 -309 109q-111 108 -111 295z" />
<glyph unicode="&#xe8;" horiz-adv-x="962" d="M598 1461v14q6 25 29 57q18 27 47 43q55 33 96 33q31 0 39 -18l143 -314l1 -2q1 -2 1 -4t-1 -4t-1 -4q-2 -14 -26 -45q-20 -27 -39 -39q-49 -33 -84 -33q-16 0 -21 11l-182 284q-2 7 -2 21zM186 395q0 66 17 142q35 164 125 288q94 131 217 201q127 72 258 72 q163 0 258 -111q96 -113 96 -293q0 -84 -16 -157l-15 -68h-663q-10 -51 -10 -86q0 -43 12 -78q14 -39 29 -53q23 -23 38 -31q29 -14 46 -16q29 -4 43 -4q98 0 167 65l207 -96q-80 -96 -198 -147q-117 -51 -226 -52q-170 0 -276 117q-109 119 -109 307zM502 651h411 q4 29 5 37q0 80 -44 129q-45 51 -120 51q-92 0 -158 -63q-69 -68 -94 -154z" />
<glyph unicode="&#xe9;" horiz-adv-x="962" d="M711 1249v10q2 10 8 14l274 314q18 18 47 18q43 0 82 -33q16 -12 25 -32q10 -25 10 -50q0 -14 -2 -20q-4 -20 -16 -33l-303 -284q-10 -10 -23 -11q-14 0 -39 11q-18 8 -33 22q-10 6 -20 33q-10 25 -10 41zM186 395q0 66 17 142q35 164 125 288q94 131 217 201 q127 72 258 72q163 0 258 -111q96 -113 96 -293q0 -84 -16 -157l-15 -68h-663q-10 -51 -10 -86q0 -43 12 -78q14 -39 29 -53q23 -23 38 -31q29 -14 46 -16q29 -4 43 -4q98 0 167 65l207 -96q-80 -96 -198 -147q-117 -51 -226 -52q-170 0 -276 117q-109 119 -109 307z M502 651h411q4 29 5 37q0 80 -44 129q-45 51 -120 51q-92 0 -158 -63q-69 -68 -94 -154z" />
<glyph unicode="&#xea;" horiz-adv-x="962" d="M426 1155l356 342h235l211 -344h-270l-98 160l-158 -158h-276zM186 395q0 66 17 142q35 164 125 288q94 131 217 201q127 72 258 72q163 0 258 -111q96 -113 96 -293q0 -84 -16 -157l-15 -68h-663q-10 -51 -10 -86q0 -43 12 -78q14 -39 29 -53q23 -23 38 -31 q29 -14 46 -16q29 -4 43 -4q98 0 167 65l207 -96q-80 -96 -198 -147q-117 -51 -226 -52q-170 0 -276 117q-109 119 -109 307zM502 651h411q4 29 5 37q0 80 -44 129q-45 51 -120 51q-92 0 -158 -63q-69 -68 -94 -154z" />
<glyph unicode="&#xeb;" horiz-adv-x="962" d="M924 1277q0 10 4 35q16 70 71.5 117t127.5 47q59 0 96 -37t37 -92q0 -10 -4 -35q-16 -70 -71.5 -117t-127.5 -47q-59 0 -96 37t-37 92zM453 1277q0 10 4 35q16 70 71.5 117t127.5 47q59 0 96 -37t37 -92q0 -10 -4 -35q-16 -70 -71.5 -117t-127.5 -47q-59 0 -96 37t-37 92 zM186 395q0 66 17 142q35 164 125 288q94 131 217 201q127 72 258 72q163 0 258 -111q96 -113 96 -293q0 -84 -16 -157l-15 -68h-663q-10 -51 -10 -86q0 -43 12 -78q14 -39 29 -53q23 -23 38 -31q29 -14 46 -16q29 -4 43 -4q98 0 167 65l207 -96q-80 -96 -198 -147 q-117 -51 -226 -52q-170 0 -276 117q-109 119 -109 307zM502 651h411q4 29 5 37q0 80 -44 129q-45 51 -120 51q-92 0 -158 -63q-69 -68 -94 -154z" />
<glyph unicode="&#xec;" horiz-adv-x="548" d="M139 0l228 1073h270l-229 -1073h-269zM285 1450q0 2 1 7t1 9q6 25 28 58q20 29 45 43q55 33 97 32q31 0 41 -20l143 -311v-6v-9q-2 -14 -27 -45q-20 -27 -39 -39q-49 -33 -83 -32q-14 0 -21 10l-182 285q-4 12 -4 18z" />
<glyph unicode="&#xed;" horiz-adv-x="542" d="M139 0l228 1073h270l-229 -1073h-269zM434 1241q0 2 1 5t1 5q4 12 6 15l277 313q18 18 47 18q43 0 82 -32q16 -12 24 -33q10 -25 11 -49q0 -14 -2 -21q-2 -16 -19 -32l-301 -285q-14 -10 -24 -10q-12 0 -37 10q-18 8 -33 22q-14 10 -23 31q-10 25 -10 43z" />
<glyph unicode="&#xee;" horiz-adv-x="544" d="M117 1149l356 342h236l211 -344h-271l-98 160l-158 -158h-276zM139 0l228 1073h270l-229 -1073h-269z" />
<glyph unicode="&#xef;" horiz-adv-x="546" d="M139 0l228 1073h270l-229 -1073h-269zM162 1288q0 10 4 35q16 70 71.5 117t127.5 47q59 0 96 -37t37 -92q0 -10 -4 -35q-16 -70 -71.5 -117t-127.5 -47q-59 0 -96 37t-37 92zM633 1288q0 10 4 35q16 70 71.5 117t127.5 47q59 0 96 -37t37 -92q0 -10 -4 -35 q-16 -70 -71.5 -117t-127.5 -47q-59 0 -96 37t-37 92z" />
<glyph unicode="&#xf0;" horiz-adv-x="1060" d="M154 305q0 77 18 166q43 206 190 344q145 137 322 137q72 0 125 -47q57 -49 82 -106q4 20 4 37q0 66 -25 151q-23 82 -57 123l-104 -82l-121 154l100 73q-15 12 -24.5 18.5t-36.5 12.5q-29 6 -70 6q-53 0 -108 -10l20 193q45 16 152 16h6q82 0 151 -29q72 -29 107 -61 l141 110l125 -184l-145 -98q45 -74 73 -172q31 -106 31 -213q0 -51 -4 -74q-8 -86 -23 -160q-12 -55 -24 -104q-53 -244 -213 -397q-164 -158 -348 -158q-92 0 -158 26q-70 29 -109 76q-41 51 -59 113q-18 63 -18 139zM420 373q0 -89 37 -142q37 -51 84 -51q76 0 151 88 q74 84 99 199q8 45 8 63q0 84 -51 140q-49 53 -119 53q-57 0 -119 -80q-59 -78 -82 -176q-8 -43 -8 -94z" />
<glyph unicode="&#xf1;" horiz-adv-x="1087" d="M510 1212l51 242q25 16 33 22q27 20 41 29q2 2 15.5 11.5t23.5 13.5q33 16 47 20q20 6 45 6q27 0 53 -16q23 -14 45 -37l41 -45q27 -27 49 -39q27 -14 56 -14q33 0 74 20q47 25 63 37q20 14 63 49l-55 -260q-2 0 -6 -4t-13 -10l-18 -12l-49 -33q-12 -8 -51 -23 q-34 -12 -61 -12q-39 0 -76 25q-35 23 -60 51q-20 25 -55 51q-31 25 -55.5 25t-55.5 -11q-12 -4 -45 -20q-6 -2 -13 -7t-18.5 -12.5t-19.5 -13.5l-28.5 -19.5t-20.5 -13.5zM119 0l227 1073h258l-33 -162q59 82 160 138q94 53 203 53q47 0 88 -21q47 -23 76 -55 q31 -33 53 -96q20 -55 20 -131q0 -59 -16 -131l-141 -668h-258l114 537q23 113 23 178q0 84 -35 119q-33 33 -98 32q-39 0 -64 -8q-35 -12 -59 -29q-33 -23 -57 -59q-33 -49 -50 -94q-18 -49 -38 -139l-115 -537h-258z" />
<glyph unicode="&#xf2;" horiz-adv-x="1148" d="M584 1465v14q6 25 29 57q18 27 47 43q55 33 96 33q31 0 39 -18l143 -314l1 -2q1 -2 1 -4t-1 -4t-1 -4q-2 -14 -26 -45q-20 -27 -39 -39q-49 -33 -84 -33q-16 0 -21 11l-182 284q-2 7 -2 21zM184 354q0 80 23 183q55 262 211 411q158 152 381 152q182 0 276 -101 q96 -102 96 -280q0 -88 -20 -182q-53 -254 -213 -414q-152 -152 -379 -152q-184 0 -278 101q-97 102 -97 282zM442 399q0 -193 168 -192q221 0 291 330q18 78 19 139q0 190 -170 190q-219 0 -291 -329q-17 -83 -17 -138z" />
<glyph unicode="&#xf3;" horiz-adv-x="1150" d="M707 1256v10q2 10 8 14l274 314q18 18 47 18q43 0 82 -33q16 -12 25 -32q10 -25 10 -50q0 -14 -2 -20q-4 -20 -16 -33l-303 -284q-10 -10 -23 -11q-14 0 -39 11q-18 8 -33 22q-10 6 -20 33q-10 25 -10 41zM184 354q0 80 23 183q55 262 211 411q158 152 381 152 q182 0 276 -101q96 -102 96 -280q0 -88 -20 -182q-53 -254 -213 -414q-152 -152 -379 -152q-184 0 -278 101q-97 102 -97 282zM442 399q0 -193 168 -192q221 0 291 330q18 78 19 139q0 190 -170 190q-219 0 -291 -329q-17 -83 -17 -138z" />
<glyph unicode="&#xf4;" horiz-adv-x="1148" d="M404 1145l356 342h235l211 -344h-270l-98 160l-158 -158h-276zM184 354q0 80 23 183q55 262 211 411q158 152 381 152q182 0 276 -101q96 -102 96 -280q0 -88 -20 -182q-53 -254 -213 -414q-152 -152 -379 -152q-184 0 -278 101q-97 102 -97 282zM442 399 q0 -193 168 -192q221 0 291 330q18 78 19 139q0 190 -170 190q-219 0 -291 -329q-17 -83 -17 -138z" />
<glyph unicode="&#xf5;" horiz-adv-x="1148" d="M504 1204l51 242q25 16 33 22q27 20 41 29q2 2 15.5 11.5t23.5 13.5q33 16 47 20q20 6 45 6q27 0 53 -16q23 -14 45 -37l41 -45q27 -27 49 -39q27 -14 56 -14q33 0 74 20q47 25 63 37q20 14 63 49l-55 -260q-2 0 -6 -4t-13 -10l-18 -12l-49 -33q-12 -8 -51 -23 q-34 -12 -61 -12q-39 0 -76 25q-35 23 -60 51q-20 25 -55 51q-31 25 -55.5 25t-55.5 -11q-12 -4 -45 -20q-6 -2 -13 -7t-18.5 -12.5t-19.5 -13.5l-28.5 -19.5t-20.5 -13.5zM184 354q0 80 23 183q55 262 211 411q158 152 381 152q182 0 276 -101q96 -102 96 -280 q0 -88 -20 -182q-53 -254 -213 -414q-152 -152 -379 -152q-184 0 -278 101q-97 102 -97 282zM442 399q0 -193 168 -192q221 0 291 330q18 78 19 139q0 190 -170 190q-219 0 -291 -329q-17 -83 -17 -138z" />
<glyph unicode="&#xf6;" horiz-adv-x="1148" d="M914 1288q0 10 4 35q16 70 71.5 117t127.5 47q59 0 96 -37t37 -92q0 -10 -4 -35q-16 -70 -71.5 -117t-127.5 -47q-59 0 -96 37t-37 92zM443 1288q0 10 4 35q16 70 71.5 117t127.5 47q59 0 96 -37t37 -92q0 -10 -4 -35q-16 -70 -71.5 -117t-127.5 -47q-59 0 -96 37t-37 92 zM184 354q0 80 23 183q55 262 211 411q158 152 381 152q182 0 276 -101q96 -102 96 -280q0 -88 -20 -182q-53 -254 -213 -414q-152 -152 -379 -152q-184 0 -278 101q-97 102 -97 282zM442 399q0 -193 168 -192q221 0 291 330q18 78 19 139q0 190 -170 190q-219 0 -291 -329 q-17 -83 -17 -138z" />
<glyph unicode="&#xf7;" horiz-adv-x="1001" d="M281 764h772l-52 -240h-772zM561 1010q14 66 74 114q57 49 127 50q57 0 94 -37q39 -39 39 -95q0 -8 -4 -32q-15 -68 -74 -117q-55 -47 -127 -47q-57 0 -94 37q-39 39 -39 92q0 10 4 35zM408 281q16 70 71.5 116.5t126.5 46.5q59 0 96 -36.5t37 -92.5q0 -10 -4 -34 q-14 -66 -73.5 -115t-124.5 -49q-59 0 -96.5 36.5t-37.5 94.5q1 8 5 33z" />
<glyph unicode="&#xf8;" horiz-adv-x="1042" d="M47 -29l180 207q-37 76 -37 205q0 80 15 149q55 252 219 410t387 158q45 0 96 -15q57 -16 82 -34l43 51h262l-170 -203q41 -88 41 -211q0 -84 -16 -156q-51 -240 -219 -401q-166 -160 -367 -160q-49 0 -104.5 12.5t-83.5 34.5l-41 -47h-287zM457 463q0 -16 2 -21l354 408 q-23 20 -49 20q-104 0 -186 -104q-86 -109 -113 -234q-8 -32 -8 -69zM547 221q20 -20 61 -20q86 0 170 102q82 100 111 229q10 43 10 82v21z" />
<glyph unicode="&#xf9;" horiz-adv-x="989" d="M567 1475v14q6 25 29 57q18 27 47 43q55 33 96 33q31 0 39 -18l143 -314l1 -2q1 -2 1 -4t-1 -4t-1 -4q-2 -14 -26 -45q-20 -27 -39 -39q-49 -33 -84 -33q-16 0 -21 11l-182 284q-2 7 -2 21zM193 287q0 117 28 248l115 538h258l-115 -536q-18 -90 -18 -156q0 -55 10 -86 q12 -37 31 -55q16 -16 41 -27q14 -6 47 -6q43 0 69 12q29 14 72 49q39 33 72 103q35 74 55 166l115 536h258l-227 -1073h-259l33 162q-63 -84 -160 -137q-94 -53 -196 -54q-109 0 -170 80q-59 78 -59 236z" />
<glyph unicode="&#xfa;" horiz-adv-x="1024" d="M682 1247v10q2 10 8 14l274 314q18 18 47 18q43 0 82 -33q16 -12 25 -32q10 -25 10 -50q0 -14 -2 -20q-4 -20 -16 -33l-303 -284q-10 -10 -23 -11q-14 0 -39 11q-18 8 -33 22q-10 6 -20 33q-10 25 -10 41zM193 287q0 117 28 248l115 538h258l-115 -536q-18 -90 -18 -156 q0 -55 10 -86q12 -37 31 -55q16 -16 41 -27q14 -6 47 -6q43 0 69 12q29 14 72 49q39 33 72 103q35 74 55 166l115 536h258l-227 -1073h-259l33 162q-63 -84 -160 -137q-94 -53 -196 -54q-109 0 -170 80q-59 78 -59 236z" />
<glyph unicode="&#xfb;" horiz-adv-x="1024" d="M408 1178l356 342h235l211 -344h-270l-98 160l-158 -158h-276zM193 287q0 117 28 248l115 538h258l-115 -536q-18 -90 -18 -156q0 -55 10 -86q12 -37 31 -55q16 -16 41 -27q14 -6 47 -6q43 0 69 12q29 14 72 49q39 33 72 103q35 74 55 166l115 536h258l-227 -1073h-259 l33 162q-63 -84 -160 -137q-94 -53 -196 -54q-109 0 -170 80q-59 78 -59 236z" />
<glyph unicode="&#xfc;" horiz-adv-x="1024" d="M912 1292q0 10 4 35q16 70 71.5 117t127.5 47q59 0 96 -37t37 -92q0 -10 -4 -35q-16 -70 -71.5 -117t-127.5 -47q-59 0 -96 37t-37 92zM441 1292q0 10 4 35q16 70 71.5 117t127.5 47q59 0 96 -37t37 -92q0 -10 -4 -35q-16 -70 -71.5 -117t-127.5 -47q-59 0 -96 37t-37 92 zM193 287q0 117 28 248l115 538h258l-115 -536q-18 -90 -18 -156q0 -55 10 -86q12 -37 31 -55q16 -16 41 -27q14 -6 47 -6q43 0 69 12q29 14 72 49q39 33 72 103q35 74 55 166l115 536h258l-227 -1073h-259l33 162q-63 -84 -160 -137q-94 -53 -196 -54q-109 0 -170 80 q-59 78 -59 236z" />
<glyph unicode="&#xfd;" horiz-adv-x="980" d="M719 1231v10q2 10 8 14l274 314q18 18 47 18q43 0 82 -33q16 -12 25 -32q10 -25 10 -50q0 -14 -2 -20q-4 -20 -16 -33l-303 -284q-10 -10 -23 -11q-14 0 -39 11q-18 8 -33 22q-10 6 -20 33q-10 25 -10 41zM92 -223l227 110q6 -53 54 -88q45 -33 127 -32q84 0 149 47 q63 45 82 127l47 221q-63 -84 -160 -137q-94 -53 -196 -54q-109 0 -170 80q-59 78 -59 236q0 117 28 248l115 538h258l-115 -536q-18 -90 -18 -156q0 -55 10 -86q12 -37 31 -55q16 -16 41 -27q14 -6 47 -6q43 0 69 12q29 14 72 49q39 33 72 103q35 74 55 166l115 536h258 l-221 -1044l-13 -58q-22 -108 -110 -209q-88 -100 -207 -163.5t-223 -63.5q-150 0 -244 70q-96 72 -121 172z" />
<glyph unicode="&#xfe;" horiz-adv-x="1091" d="M119 0l309 1454h258l-63 -295q39 59 114 117q74 55 142 55q78 0 139 -31q59 -31 98 -88q37 -55 55 -129q20 -82 21 -159q0 -94 -20.5 -184.5t-53.5 -184.5q-27 -74 -82 -168q-47 -78 -112 -141q-59 -57 -148 -94q-82 -35 -180 -35q-41 0 -68 16q-35 20 -51 43 q-8 10 -28 47q-14 25 -17 35l-55 -258h-258zM508 575q0 -104 35 -167q35 -61 88 -62q76 0 162 110.5t122 293.5q12 55 13 110q0 98 -39 172q-37 70 -88 70q-78 0 -160 -107q-86 -113 -113 -243q-20 -91 -20 -177z" />
<glyph unicode="&#xff;" horiz-adv-x="980" d="M895 1292q0 10 4 35q16 70 71.5 117t127.5 47q59 0 96 -37t37 -92q0 -10 -4 -35q-16 -70 -71.5 -117t-127.5 -47q-59 0 -96 37t-37 92zM424 1292q0 10 4 35q16 70 71.5 117t127.5 47q59 0 96 -37t37 -92q0 -10 -4 -35q-16 -70 -71.5 -117t-127.5 -47q-59 0 -96 37t-37 92 zM92 -223l227 110q6 -53 54 -88q45 -33 127 -32q84 0 149 47q63 45 82 127l47 221q-63 -84 -160 -137q-94 -53 -196 -54q-109 0 -170 80q-59 78 -59 236q0 117 28 248l115 538h258l-115 -536q-18 -90 -18 -156q0 -55 10 -86q12 -37 31 -55q16 -16 41 -27q14 -6 47 -6 q43 0 69 12q29 14 72 49q39 33 72 103q35 74 55 166l115 536h258l-221 -1044l-13 -58q-22 -108 -110 -209q-88 -100 -207 -163.5t-223 -63.5q-150 0 -244 70q-96 72 -121 172z" />
<glyph unicode="&#x152;" horiz-adv-x="2619" d="M1524 0l309 1456h983l-51 -239h-715l-74 -351h652l-52 -239h-651l-82 -387h715l-51 -240h-983zM236 526q0 114 24 228q14 68 41 143q18 53 64 143q33 66 84 138q39 55 110 122q51 47 133 99q63 39 158 65q86 25 180 25q111 0 189 -29q86 -33 137 -80q53 -49 90 -120 q33 -61 49 -144q16 -78 16 -158q0 -96 -22 -204q-20 -104 -66 -213q-47 -117 -110 -209q-72 -106 -156 -184t-200.5 -127.5t-247.5 -49.5q-102 0 -184.5 31t-135.5 84q-59 59 -88 123q-35 76 -49 151q-16 86 -16 166zM518 541q0 -41 8 -103q6 -47 25 -90q18 -41 45 -72 q23 -25 70 -45q43 -18 94 -18q76 0 139 33q66 35 115 86q39 41 86 125q41 74 65 145q27 80 41 152q23 102 23 186q0 68 -12.5 119t-41 96t-77.5 69.5t-117 24.5q-90 0 -170 -45q-74 -41 -129 -119q-47 -66 -84 -157q-35 -84 -55 -174q-25 -115 -25 -213z" />
<glyph unicode="&#x153;" horiz-adv-x="2197" d="M1292 395q0 66 17 142q35 164 125 288q94 131 217 201q127 72 258 72q163 0 258 -111q96 -113 96 -293q0 -84 -16 -157l-15 -68h-663q-10 -51 -10 -86q0 -43 12 -78q14 -39 29 -53q23 -23 38 -31q29 -14 46 -16q29 -4 43 -4q98 0 167 65l207 -96q-80 -96 -198 -147 q-117 -51 -226 -52q-170 0 -276 117q-109 119 -109 307zM1608 651h411q4 29 5 37q0 80 -44 129q-45 51 -120 51q-92 0 -158 -63q-69 -68 -94 -154zM184 354q0 80 23 183q55 262 211 411q158 152 381 152q182 0 276 -101q96 -102 96 -280q0 -88 -20 -182q-53 -254 -213 -414 q-152 -152 -379 -152q-184 0 -278 101q-97 102 -97 282zM442 399q0 -193 168 -192q221 0 291 330q18 78 19 139q0 190 -170 190q-219 0 -291 -329q-17 -83 -17 -138z" />
<glyph unicode="&#x178;" horiz-adv-x="1312" d="M1102 1740q0 10 4 35q16 70 71.5 117t127.5 47q59 0 96 -37t37 -92q0 -10 -4 -35q-16 -70 -71.5 -117t-127.5 -47q-59 0 -96 37t-37 92zM631 1740q0 10 4 35q16 70 71.5 117t127.5 47q59 0 96 -37t37 -92q0 -10 -4 -35q-16 -70 -71.5 -117t-127.5 -47q-59 0 -96 37 t-37 92zM375 1456h284l197 -536l424 536h279l-613 -751l-149 -705h-269l150 705z" />
<glyph unicode="&#x2c6;" horiz-adv-x="1079" d="M367 1151l356 342h235l211 -344h-270l-98 160l-158 -158h-276z" />
<glyph unicode="&#x2dc;" horiz-adv-x="614" d="M-281 178l51 242q25 16 33 22q27 20 41 29q2 2 15.5 11.5t23.5 13.5q33 16 47 20q20 6 45 6q27 0 53 -16q23 -14 45 -37l41 -45q27 -27 49 -39q27 -14 56 -14q33 0 74 20q47 25 63 37q20 14 63 49l-55 -260q-2 0 -6 -4t-13 -10l-18 -12l-49 -33q-12 -8 -51 -23 q-34 -12 -61 -12q-39 0 -76 25q-35 23 -60 51q-20 25 -55 51q-31 25 -55.5 25t-55.5 -11q-12 -4 -45 -20q-6 -2 -13 -7t-18.5 -12.5t-19.5 -13.5l-28.5 -19.5t-20.5 -13.5z" />
<glyph unicode="&#x2000;" horiz-adv-x="1046" />
<glyph unicode="&#x2001;" horiz-adv-x="2095" />
<glyph unicode="&#x2002;" horiz-adv-x="1046" />
<glyph unicode="&#x2003;" horiz-adv-x="2095" />
<glyph unicode="&#x2004;" horiz-adv-x="696" />
<glyph unicode="&#x2005;" horiz-adv-x="522" />
<glyph unicode="&#x2006;" horiz-adv-x="348" />
<glyph unicode="&#x2007;" horiz-adv-x="348" />
<glyph unicode="&#x2008;" horiz-adv-x="260" />
<glyph unicode="&#x2009;" horiz-adv-x="417" />
<glyph unicode="&#x200a;" horiz-adv-x="114" />
<glyph unicode="&#x2010;" horiz-adv-x="958" d="M207 514l51 240h772l-51 -240h-772z" />
<glyph unicode="&#x2011;" horiz-adv-x="958" d="M207 514l51 240h772l-51 -240h-772z" />
<glyph unicode="&#x2012;" horiz-adv-x="958" d="M207 514l51 240h772l-51 -240h-772z" />
<glyph unicode="&#x2013;" horiz-adv-x="999" d="M264 494l49 229h686l-49 -229h-686z" />
<glyph unicode="&#x2014;" horiz-adv-x="1288" d="M244 494l49 229h1010l-50 -229h-1009z" />
<glyph unicode="&#x2018;" horiz-adv-x="382" d="M610 1317q0 -20 -6 -45q-12 -63 -70 -111q-61 -51 -123 -51q-68 0 -102 39q-33 35 -33 90q0 23 2 33q12 55 47 117q34 58 74 104q27 31 74 74q39 37 57 47l66 -43q-16 -20 -41 -60t-31 -61v-12q39 -10 62 -39q24 -31 24 -82z" />
<glyph unicode="&#x2019;" horiz-adv-x="382" d="M340 1399q0 20 6 45q12 63 70 111q61 51 123 51q68 0 102 -39q33 -35 33 -90q0 -23 -2 -33q-12 -55 -47 -117q-34 -58 -74 -104q-27 -31 -74 -74q-39 -37 -57 -47l-66 43q16 20 41 60t31 61v12q-39 10 -62 39q-24 31 -24 82z" />
<glyph unicode="&#x201a;" horiz-adv-x="382" d="M59 109q0 20 6 45q12 63 70 111q61 51 123 51q68 0 102 -39q33 -35 33 -90q0 -23 -2 -33q-12 -55 -47 -117q-34 -58 -74 -104q-27 -31 -74 -74q-39 -37 -57 -47l-66 43q16 20 41 60t31 61v12q-39 10 -62 39q-24 31 -24 82z" />
<glyph unicode="&#x201c;" horiz-adv-x="768" d="M1020 1317q0 -20 -6 -45q-12 -63 -70 -111q-61 -51 -123 -51q-68 0 -102 39q-33 35 -33 90q0 23 2 33q12 55 47 117q34 58 74 104q27 31 74 74q39 37 57 47l66 -43q-16 -20 -41 -60t-31 -61v-12q39 -10 62 -39q24 -31 24 -82zM618 1319q0 -20 -6 -45q-12 -63 -70 -111 q-61 -51 -123 -51q-68 0 -102 39q-33 35 -33 90q0 23 2 33q12 55 47 117q34 58 74 104q27 31 74 74q39 37 57 47l66 -43q-16 -20 -41 -60t-31 -61v-12q39 -10 62 -39q24 -31 24 -82z" />
<glyph unicode="&#x201d;" horiz-adv-x="768" d="M711 1399q0 20 6 45q12 63 70 111q61 51 123 51q68 0 102 -39q33 -35 33 -90q0 -23 -2 -33q-12 -55 -47 -117q-34 -58 -74 -104q-27 -31 -74 -74q-39 -37 -57 -47l-66 43q16 20 41 60t31 61v12q-39 10 -62 39q-24 31 -24 82zM332 1401q0 20 6 45q12 63 70 111 q61 51 123 51q68 0 102 -39q33 -35 33 -90q0 -23 -2 -33q-12 -55 -47 -117q-34 -58 -74 -104q-27 -31 -74 -74q-39 -37 -57 -47l-66 43q16 20 41 60t31 61v12q-39 10 -62 39q-24 31 -24 82z" />
<glyph unicode="&#x201e;" horiz-adv-x="768" d="M443 107q0 20 6 45q12 63 70 111q61 51 123 51q68 0 102 -39q33 -35 33 -90q0 -23 -2 -33q-12 -55 -47 -117q-34 -58 -74 -104q-27 -31 -74 -74q-39 -37 -57 -47l-66 43q16 20 41 60t31 61v12q-39 10 -62 39q-24 31 -24 82zM64 109q0 20 6 45q12 63 70 111q61 51 123 51 q68 0 102 -39q33 -35 33 -90q0 -23 -2 -33q-12 -55 -47 -117q-34 -58 -74 -104q-27 -31 -74 -74q-39 -37 -57 -47l-66 43q16 20 41 60t31 61v12q-39 10 -62 39q-24 31 -24 82z" />
<glyph unicode="&#x2026;" horiz-adv-x="1351" d="M989 96q0 10 4 35q16 70 71.5 117t127.5 47q59 0 96 -37t37 -92q0 -10 -4 -35q-16 -70 -71.5 -117t-127.5 -47q-59 0 -96 37t-37 92zM539 96q0 10 4 35q16 70 71.5 117t127.5 47q59 0 96 -37t37 -92q0 -10 -4 -35q-16 -70 -71.5 -117t-127.5 -47q-59 0 -96 37t-37 92z M88 96q0 10 4 35q16 70 71.5 117t127.5 47q59 0 96 -37t37 -92q0 -10 -4 -35q-16 -70 -71.5 -117t-127.5 -47q-59 0 -96 37t-37 92z" />
<glyph unicode="&#x202f;" horiz-adv-x="417" />
<glyph unicode="&#x2039;" horiz-adv-x="862" d="M180 637l545 600h334l-547 -604l287 -608h-330z" />
<glyph unicode="&#x203a;" horiz-adv-x="862" d="M59 20l551 613l-293 602h340l285 -598l-545 -617h-338z" />
<glyph unicode="&#x205f;" horiz-adv-x="522" />
<glyph unicode="&#x20ac;" horiz-adv-x="1224" d="M227 481l35 166h137l13 78q10 33 12 35h-131l35 166h149q84 154 225 254q143 102 297 102q102 0 185 -47q78 -45 139 -152l-184 -133q-59 102 -189 103q-53 0 -122.5 -37t-88.5 -90h269l-35 -166h-291q-8 -6 -14 -37l-11 -76h285l-35 -166h-262q6 -39 65.5 -63.5 t100.5 -24.5q59 0 76 2q20 2 59 21q41 18 76 51l145 -133q-80 -80 -174 -127q-86 -43 -231 -43q-164 0 -273 92q-104 90 -110 225h-152z" />
<glyph unicode="&#x2122;" horiz-adv-x="2899" d="M1420 0l309 1456h360l129 -1032l578 1032h358l-309 -1456h-262l213 999l-531 -999h-270l-102 987l-211 -987h-262zM338 1217l49 239h1202l-51 -239h-457l-258 -1217h-268l258 1217h-475z" />
<glyph unicode="&#xe000;" horiz-adv-x="1075" d="M0 1075h1075v-1075h-1075v1075z" />
<glyph unicode="&#xfb01;" horiz-adv-x="1314" d="M921 0l228 1073h258l-228 -1073h-258zM1183 1298q0 10 5 35q12 70 65 113q57 47 115 47q51 0 83.5 -35t32.5 -90q0 -10 -4 -35q-16 -68 -67 -112q-53 -47 -113 -47q-51 0 -84 36q-33 35 -33 88zM213 0l178 844h-137l47 229h139l19 80q14 57 49 109q35 49 96 108 q55 52 129 86q72 33 146 33q61 0 118 -23q55 -23 90 -65l-186 -180q-12 20 -37 28q-27 10 -43 11q-82 0 -100 -86l-23 -101h166l-49 -229h-166l-178 -844h-258z" />
<glyph unicode="&#xfb02;" horiz-adv-x="1341" d="M966 170q0 35 15 106l250 1178h258l-250 -1173q-2 -10 -2 -25q0 -61 75 -61l-47 -224q-147 0 -225 45q-74 43 -74 154zM213 0l178 844h-137l47 229h139l19 80q14 57 49 109q35 49 96 108q55 52 129 86q72 33 146 33q61 0 118 -23q55 -23 90 -65l-186 -180q-12 20 -37 28 q-27 10 -43 11q-82 0 -100 -86l-23 -101h166l-49 -229h-166l-178 -844h-258z" />
<glyph unicode="&#xfb03;" horiz-adv-x="2097" d="M1704 0l228 1073h258l-228 -1073h-258zM1966 1298q0 10 5 35q12 70 65 113q57 47 115 47q51 0 83.5 -35t32.5 -90q0 -10 -4 -35q-16 -68 -67 -112q-53 -47 -113 -47q-51 0 -84 36q-33 35 -33 88zM995 0l178 844h-137l47 229h139l19 80q14 57 49 109q35 49 96 108 q55 52 129 86q72 33 146 33q61 0 118 -23q55 -23 90 -65l-186 -180q-12 20 -37 28q-27 10 -43 11q-82 0 -100 -86l-23 -101h166l-49 -229h-166l-178 -844h-258zM213 0l178 844h-137l47 229h139l19 80q14 57 49 109q35 49 96 108q55 52 129 86q72 33 146 33q61 0 118 -23 q55 -23 90 -65l-186 -180q-12 20 -37 28q-27 10 -43 11q-82 0 -100 -86l-23 -101h166l-49 -229h-166l-178 -844h-258z" />
<glyph unicode="&#xfb04;" horiz-adv-x="2123" d="M1749 170q0 35 15 106l250 1178h258l-250 -1173q-2 -10 -2 -25q0 -61 75 -61l-47 -224q-147 0 -225 45q-74 43 -74 154zM995 0l178 844h-137l47 229h139l19 80q14 57 49 109q35 49 96 108q55 52 129 86q72 33 146 33q61 0 118 -23q55 -23 90 -65l-186 -180q-12 20 -37 28 q-27 10 -43 11q-82 0 -100 -86l-23 -101h166l-49 -229h-166l-178 -844h-258zM213 0l178 844h-137l47 229h139l19 80q14 57 49 109q35 49 96 108q55 52 129 86q72 33 146 33q61 0 118 -23q55 -23 90 -65l-186 -180q-12 20 -37 28q-27 10 -43 11q-82 0 -100 -86l-23 -101h166 l-49 -229h-166l-178 -844h-258z" />
</font>
</defs>
</svg>
